<?xml version="1.0" encoding="UTF-8"?>
<svg version="1.1" xmlns="http://www.w3.org/2000/svg" width="1400" height="788">
<path d="M0 0 C462 0 924 0 1400 0 C1400 260.04 1400 520.08 1400 788 C938 788 476 788 0 788 C0 527.96 0 267.92 0 0 Z " fill="#AEA1BC" transform="translate(0,0)"/>
<path d="M0 0 C143.88 0 287.76 0 436 0 C436 260.04 436 520.08 436 788 C292.12 788 148.24 788 0 788 C-2.25000197 774.49998816 -2.25000197 774.49998816 -2.25069833 769.6246357 C-2.25570536 768.50561214 -2.2607124 767.38658858 -2.26587117 766.23365521 C-2.26118883 765.04288963 -2.2565065 763.85212405 -2.25168228 762.62527466 C-2.25458916 761.32510619 -2.25749604 760.02493772 -2.26049101 758.68537021 C-2.26823537 755.09476595 -2.2636424 751.50427014 -2.25693511 747.91366777 C-2.2518421 744.00038748 -2.25838928 740.08712327 -2.26342177 736.17384529 C-2.27063352 729.32129302 -2.27043317 722.46877228 -2.26532745 715.61621857 C-2.25775569 705.42614815 -2.26163351 695.23610428 -2.26774407 685.04603404 C-2.27827201 666.84551382 -2.27736417 648.64500764 -2.27158624 630.44448608 C-2.26655471 614.51688326 -2.26524193 598.58928558 -2.26763153 582.66168213 C-2.2677843 581.60507956 -2.26793707 580.54847699 -2.26809447 579.45985617 C-2.26871715 575.17073908 -2.26935395 570.881622 -2.270014 566.59250493 C-2.27613171 526.35904816 -2.27058553 486.12560034 -2.2598202 445.89214495 C-2.25032903 410.14879497 -2.25117829 374.40545923 -2.26074219 338.66210938 C-2.27145194 298.50213591 -2.27569784 258.34217035 -2.26951766 218.18219566 C-2.26887623 213.90090307 -2.26825055 209.61961047 -2.26763153 205.33831787 C-2.26747338 204.28415798 -2.26731522 203.2299981 -2.26715227 202.14389397 C-2.26487753 186.22648135 -2.26753751 170.30907443 -2.27259064 154.3916626 C-2.27830775 136.29248153 -2.27688247 118.19331671 -2.26602915 100.09413767 C-2.26015561 89.96524797 -2.25977465 79.83639345 -2.2673215 69.70750467 C-2.27180702 62.94097741 -2.26901373 56.17447834 -2.26031196 49.40795525 C-2.25555654 45.55325917 -2.25392331 41.69863294 -2.26112393 37.84393907 C-2.26880898 33.6874765 -2.26097518 29.53118458 -2.25168228 25.37472534 C-2.25636461 24.18395976 -2.26104695 22.99319417 -2.26587117 21.76634479 C-2.26086413 20.64732123 -2.25585709 19.52829767 -2.25069833 18.3753643 C-2.25056281 17.42656737 -2.25042729 16.47777044 -2.25028767 15.50022209 C-1.87791122 10.29261332 -0.85831156 5.14986937 0 0 Z " fill="#556BC0" transform="translate(964,0)"/>
<path d="M0 0 C143.88 0 287.76 0 436 0 C436 83.16 436 166.32 436 252 C429.31938456 248.35602794 422.64477774 244.70795005 416 241 C416 240.34 416 239.68 416 239 C414.98873047 238.87818359 414.98873047 238.87818359 413.95703125 238.75390625 C410.10530859 237.77189506 407.08192164 235.96156811 403.6875 233.9375 C403.04232422 233.56044922 402.39714844 233.18339844 401.73242188 232.79492188 C400.15121848 231.86962507 398.5750854 230.93567319 397 230 C397 229.34 397 228.68 397 228 C396.31164063 227.91492188 395.62328125 227.82984375 394.9140625 227.7421875 C391.30498188 226.82298466 388.48998563 225.08877713 385.375 223.125 C384.02434451 222.29409675 382.67273814 221.46473769 381.3203125 220.63671875 C380.61165039 220.20149902 379.90298828 219.7662793 379.17285156 219.31787109 C375.56671756 217.13069004 371.90738918 215.03743824 368.25 212.9375 C359.81954748 208.08096804 351.44708171 203.12915322 343.08276367 198.15985107 C333.83758664 192.66828885 324.56290909 187.22924244 315.2644043 181.82836914 C308.89252422 178.12228114 302.55380001 174.3668341 296.28613281 170.48657227 C293.35855658 168.57720023 293.35855658 168.57720023 290 168 C290.433125 169.21623047 290.433125 169.21623047 290.875 170.45703125 C291.24625 171.56433594 291.6175 172.67164063 292 173.8125 C292.37125 174.89144531 292.7425 175.97039062 293.125 177.08203125 C294 181 294 181 294 192 C265.62 192 237.24 192 208 192 C207.14984077 187.74920387 206.92287413 184.55736485 207.02929688 180.28540039 C207.05893604 178.93018567 207.08834441 177.57496588 207.11755371 176.21974182 C207.1346489 175.50749514 207.15174408 174.79524845 207.1693573 174.06141853 C207.25398295 170.26852848 207.30009474 166.47510041 207.3515625 162.68164062 C207.41759412 157.86380552 207.49556074 153.04733266 207.62402344 148.23071289 C207.72708941 144.32802338 207.78580443 140.42686184 207.81495667 136.52294731 C207.83403807 135.03995856 207.86919812 133.55708317 207.92100525 132.07487679 C208.46196236 123.84141663 208.46196236 123.84141663 205.0090332 116.75753784 C202.72056682 115.20761833 200.55345689 114.04414627 198 113 C197.34 112.67 196.68 112.34 196 112 C196.13989853 112.91245987 196.27979706 113.82491974 196.42393494 114.76502991 C198.13577802 126.496442 199.26592599 138.22567892 199.9375 150.0625 C199.99142914 151.00625992 200.04535828 151.95001984 200.10092163 152.92237854 C201.34297019 177.55082149 198.83836888 196.76856263 181.97265625 215.60546875 C176.43820698 221.63810711 170.57111601 227.26229454 164.5 232.75 C163.36998629 233.77215544 163.36998629 233.77215544 162.21714401 234.81496048 C152.79171052 243.27744753 143.06602859 251.31292029 133 259 C129.01449317 255.93447928 126.2217903 252.86926265 123.5625 248.625 C123.17489502 248.00705566 122.78729004 247.38911133 122.38793945 246.75244141 C109.10452348 225.03497932 105.54582464 199.59569574 111.40039062 174.90966797 C115.96867999 156.87672498 125.45109471 142.53006771 138.375 129.375 C138.89940674 128.84092529 139.42381348 128.30685059 139.96411133 127.7565918 C143.75533179 124 143.75533179 124 146 124 C146 123.34 146 122.68 146 122 C173.17796799 106.4893415 173.17796799 106.4893415 184 107 C184 106.01 184 105.02 184 104 C183.27288818 103.72325439 182.54577637 103.44650879 181.79663086 103.16137695 C179.15288172 102.06348829 176.74306408 100.82715854 174.25390625 99.41796875 C173.34624512 98.90524414 172.43858398 98.39251953 171.50341797 97.86425781 C170.53291504 97.31092773 169.56241211 96.75759766 168.5625 96.1875 C167.02940186 95.31689941 167.02940186 95.31689941 165.46533203 94.42871094 C156.91925668 89.55914484 148.44440189 84.57442812 139.98828125 79.55078125 C133.50815759 75.70213492 127.00827887 71.88745153 120.50592041 68.07653809 C118.60640137 66.96323058 116.70724697 65.84930294 114.80810547 64.73535156 C113.62340325 64.04096299 112.43867152 63.34662474 111.25390625 62.65234375 C110.21564697 62.04382568 109.1773877 61.43530762 108.10766602 60.80834961 C105.84526085 59.49185695 103.57897392 58.1845528 101.30577087 56.88697815 C100.21486649 56.26427536 99.1239621 55.64157257 98 55 C98.00607553 55.8999812 98.01215105 56.79996241 98.01841068 57.72721577 C98.23269161 89.75546957 98.4070542 121.78390931 98.5625 153.8125 C98.56888284 155.12013573 98.57526568 156.42777146 98.58184195 157.77503252 C99.04397979 252.96426294 98.99858029 348.1508657 98.57217997 531.50062269 C98.56247095 535.19856587 98.55279008 538.89650912 98.54311228 542.59445238 C98.37681855 606.06301184 98.19598593 669.53152539 98 733 C101.48330122 730.99233917 104.96636054 728.98425934 108.44921875 726.97583008 C110.20040015 725.96609926 111.95175998 724.95667793 113.703125 723.94726562 C115.4046875 722.9659668 115.4046875 722.9659668 117.140625 721.96484375 C118.27564453 721.31112793 119.41066406 720.65741211 120.58007812 719.98388672 C122.88339344 718.64774021 125.1789431 717.30380097 127.46679688 715.94189453 C128.54509766 715.3023584 129.62339844 714.66282227 130.734375 714.00390625 C131.70084961 713.42584229 132.66732422 712.84777832 133.66308594 712.25219727 C136 711 136 711 138 711 C138 661.5 138 612 138 561 C141.63 561 145.26 561 149 561 C149 616.44 149 671.88 149 729 C204.44 729 259.88 729 317 729 C317 732.63 317 736.26 317 740 C305.78 740 294.56 740 283 740 C282.67 740.99 282.34 741.98 282 743 C279.5668299 744.51226142 277.15858183 745.86233855 274.625 747.1875 C266.69791896 751.4617563 258.92257702 755.95024175 251.1875 760.5625 C249.47535034 761.58075069 247.76319945 762.59899933 246.0509491 763.61708069 C244.87573694 764.31593092 243.70061779 765.01493759 242.52558899 765.71409607 C235.98728576 769.60426158 229.44410127 773.48602386 222.88931274 777.34835815 C221.59241869 778.1135737 220.29649128 778.88042999 219.0015564 779.6489563 C217.20001445 780.7179503 215.39536007 781.78148652 213.58984375 782.84375 C212.55722412 783.45412109 211.52460449 784.06449219 210.46069336 784.69335938 C208 786 208 786 206 786 C206 786.66 206 787.32 206 788 C138.02 788 70.04 788 0 788 C-2.25000197 774.49998816 -2.25000197 774.49998816 -2.25069833 769.6246357 C-2.25570536 768.50561214 -2.2607124 767.38658858 -2.26587117 766.23365521 C-2.26118883 765.04288963 -2.2565065 763.85212405 -2.25168228 762.62527466 C-2.25458916 761.32510619 -2.25749604 760.02493772 -2.26049101 758.68537021 C-2.26823537 755.09476595 -2.2636424 751.50427014 -2.25693511 747.91366777 C-2.2518421 744.00038748 -2.25838928 740.08712327 -2.26342177 736.17384529 C-2.27063352 729.32129302 -2.27043317 722.46877228 -2.26532745 715.61621857 C-2.25775569 705.42614815 -2.26163351 695.23610428 -2.26774407 685.04603404 C-2.27827201 666.84551382 -2.27736417 648.64500764 -2.27158624 630.44448608 C-2.26655471 614.51688326 -2.26524193 598.58928558 -2.26763153 582.66168213 C-2.2677843 581.60507956 -2.26793707 580.54847699 -2.26809447 579.45985617 C-2.26871715 575.17073908 -2.26935395 570.881622 -2.270014 566.59250493 C-2.27613171 526.35904816 -2.27058553 486.12560034 -2.2598202 445.89214495 C-2.25032903 410.14879497 -2.25117829 374.40545923 -2.26074219 338.66210938 C-2.27145194 298.50213591 -2.27569784 258.34217035 -2.26951766 218.18219566 C-2.26887623 213.90090307 -2.26825055 209.61961047 -2.26763153 205.33831787 C-2.26747338 204.28415798 -2.26731522 203.2299981 -2.26715227 202.14389397 C-2.26487753 186.22648135 -2.26753751 170.30907443 -2.27259064 154.3916626 C-2.27830775 136.29248153 -2.27688247 118.19331671 -2.26602915 100.09413767 C-2.26015561 89.96524797 -2.25977465 79.83639345 -2.2673215 69.70750467 C-2.27180702 62.94097741 -2.26901373 56.17447834 -2.26031196 49.40795525 C-2.25555654 45.55325917 -2.25392331 41.69863294 -2.26112393 37.84393907 C-2.26880898 33.6874765 -2.26097518 29.53118458 -2.25168228 25.37472534 C-2.25636461 24.18395976 -2.26104695 22.99319417 -2.26587117 21.76634479 C-2.26086413 20.64732123 -2.25585709 19.52829767 -2.25069833 18.3753643 C-2.25056281 17.42656737 -2.25042729 16.47777044 -2.25028767 15.50022209 C-1.87791122 10.29261332 -0.85831156 5.14986937 0 0 Z " fill="#727BCB" transform="translate(964,0)"/>
<path d="M0 0 C9.76240368 5.55957158 18.80918162 12.31635241 27.01757812 19.97851562 C27.55382812 20.47891357 28.09007812 20.97931152 28.64257812 21.49487305 C29.68894882 22.47951425 30.72837552 23.47160169 31.75976562 24.47192383 C35.27001504 27.97012141 35.27001504 27.97012141 39.86914062 29.06445312 C41.63794223 27.79316522 41.63794223 27.79316522 43.24414062 25.81445312 C48.87702124 19.82625166 55.3071607 14.98191176 61.86914062 10.06445312 C62.68390869 9.45053711 62.68390869 9.45053711 63.51513672 8.82421875 C79.2702187 -2.92533391 98.59325723 -13.59850852 118.86914062 -10.93554688 C129.57623748 -8.04104462 136.83664373 -2.57568776 142.68164062 6.75195312 C156.26899437 31.54345734 150.07421981 65.20663087 142.86914062 91.06445312 C144.09375 91.2990625 145.31835938 91.53367187 146.58007812 91.77539062 C171.28342342 97.28754778 200.49839604 110.20065028 214.86914062 132.06445312 C219.88849022 140.71951928 221.3036764 149.21546845 219.86914062 159.06445312 C214.78937594 176.8877247 199.2529088 187.49573072 183.99414062 196.12695312 C171.25301226 202.88688232 157.01898566 208.28135731 142.86914062 211.06445312 C143.12308594 211.89203125 143.37703125 212.71960938 143.63867188 213.57226562 C150.92624576 238.84677281 154.83902243 268.97009223 143.55664062 293.62695312 C138.23147662 303.14426752 131.62818998 308.33483704 121.61914062 312.37695312 C102.10367251 315.95478895 84.55973418 307.4989452 68.55664062 297.12695312 C61.51736815 292.24411095 54.8440372 286.94064894 48.65429688 281.01367188 C48.11675781 280.50296143 47.57921875 279.99225098 47.02539062 279.46606445 C45.98136776 278.46602233 44.9482624 277.45442702 43.92773438 276.43041992 C41.27575543 273.78199296 41.27575543 273.78199296 37.75195312 273.02539062 C35.40284874 274.32178433 33.97973966 275.81575481 32.18164062 277.81445312 C14.9390624 295.59497714 -10.06415827 312.33060538 -35.44335938 313.50195312 C-44.44269173 313.3440701 -53.02158502 310.10593538 -59.60742188 303.85742188 C-71.82565281 289.47750393 -74.20137203 270.25201712 -73.13085938 252.06445312 C-71.94555156 238.14449452 -69.74223107 224.55668445 -66.13085938 211.06445312 C-67.39929688 210.80792969 -68.66773438 210.55140625 -69.97460938 210.28710938 C-94.36661718 204.84178419 -119.95644896 192.504603 -136.13085938 173.06445312 C-142.28986829 162.94867424 -145.27534969 153.04680401 -142.44726562 141.20117188 C-140.28490768 135.4318932 -137.164557 130.68823315 -133.13085938 126.06445312 C-132.47859375 125.29488281 -131.82632812 124.5253125 -131.15429688 123.73242188 C-115.28550791 106.418537 -90.40632699 96.92022334 -68.13085938 91.06445312 C-67.47085938 91.06445312 -66.81085938 91.06445312 -66.13085938 91.06445312 C-66.52917969 89.28941406 -66.52917969 89.28941406 -66.93554688 87.47851562 C-68.01061993 82.67601432 -69.07401808 77.87099726 -70.13085938 73.06445312 C-70.46537109 71.54464844 -70.46537109 71.54464844 -70.80664062 69.99414062 C-75.51446313 47.64096814 -75.45049295 22.92671951 -63.13085938 3.06445312 C-60.31545895 -0.83152872 -57.38490424 -3.77524303 -53.19335938 -6.18554688 C-52.37996094 -6.66507812 -51.5665625 -7.14460938 -50.72851562 -7.63867188 C-33.70713874 -16.13656229 -15.42230295 -8.47227211 0 0 Z " fill="#FCFCFD" transform="translate(636.130859375,121.935546875)"/>
<path d="M0 0 C0 83.16 0 166.32 0 252 C-75.9 252 -151.8 252 -230 252 C-230 251.34 -230 250.68 -230 250 C-229.15824219 249.5359375 -228.31648438 249.071875 -227.44921875 248.59375 C-217.48578471 243.06203597 -207.67697631 237.28318167 -197.88134766 231.46044922 C-196.70737757 230.76266032 -195.53338642 230.06490686 -194.359375 229.3671875 C-193.76816864 229.01582733 -193.17696228 228.66446716 -192.56784058 228.30245972 C-186.0560641 224.43509938 -179.52923236 220.59346408 -172.99716187 216.76049805 C-171.71546904 216.00824272 -170.43407261 215.25548216 -169.15298462 214.50219727 C-167.36447443 213.45067424 -165.57496754 212.40086897 -163.78515625 211.3515625 C-162.76301025 210.75166504 -161.74086426 210.15176758 -160.68774414 209.53369141 C-158 208 -158 208 -155.70092773 206.91552734 C-153.81581718 206.11132302 -153.81581718 206.11132302 -153 204 C-141.78 204 -130.56 204 -119 204 C-119 200.37 -119 196.74 -119 193 C-174.44 193 -229.88 193 -287 193 C-287 137.56 -287 82.12 -287 25 C-286.67 25 -286.34 25 -286 25 C-285.8677901 38.52877101 -285.73729809 52.05755748 -285.60884857 65.58636475 C-285.54911837 71.87203772 -285.48885189 78.15770448 -285.42724609 84.44335938 C-284.89760093 138.55898577 -284.89760093 138.55898577 -285 165 C-284.30132813 164.6390625 -283.60265625 164.278125 -282.8828125 163.90625 C-281.97273438 163.4421875 -281.06265625 162.978125 -280.125 162.5 C-279.22007813 162.0359375 -278.31515625 161.571875 -277.3828125 161.09375 C-275 160 -275 160 -273 160 C-273 159.34 -273 158.68 -273 158 C-272.28021973 157.65388672 -271.56043945 157.30777344 -270.81884766 156.95117188 C-263.09127004 153.17020078 -255.71796639 148.97631572 -248.375 144.5 C-247.32054687 143.86191406 -246.26609375 143.22382812 -245.1796875 142.56640625 C-239.11562421 138.8970305 -239.11562421 138.8970305 -233.07128906 135.1953125 C-231.72502441 134.37160156 -231.72502441 134.37160156 -230.3515625 133.53125 C-229.55830566 133.04205078 -228.76504883 132.55285156 -227.94775391 132.04882812 C-226 131 -226 131 -224 131 C-227.05299539 125.36427501 -230.59313036 120.30908296 -234.4375 115.1875 C-235.69737199 113.49405281 -236.9564689 111.80002874 -238.21484375 110.10546875 C-238.84890137 109.25259277 -239.48295898 108.3997168 -240.13623047 107.52099609 C-242.95763804 103.70466722 -245.73012686 99.85381085 -248.5 96 C-253.21373936 89.45228835 -257.96659738 82.93450642 -262.75 76.4375 C-263.35908203 75.60927734 -263.96816406 74.78105469 -264.59570312 73.92773438 C-265.15708984 73.16654297 -265.71847656 72.40535156 -266.296875 71.62109375 C-266.79541992 70.9448999 -267.29396484 70.26870605 -267.80761719 69.57202148 C-268.909912 68.04473663 -268.909912 68.04473663 -270 67 C-270.29178308 64.22806071 -270.36366316 62.58590175 -268.875 60.1875 C-266.12608651 58.44652145 -264.19866519 58.65929005 -261 59 C-259.015625 60.6953125 -259.015625 60.6953125 -257.25 63.125 C-256.56808594 64.04539062 -255.88617187 64.96578125 -255.18359375 65.9140625 C-254.46300781 66.93242188 -253.74242187 67.95078125 -253 69 C-252.24847656 70.03898438 -251.49695312 71.07796875 -250.72265625 72.1484375 C-249.05824359 74.45645498 -247.40795807 76.77388029 -245.765625 79.09765625 C-242.72495989 83.39717437 -239.64647937 87.66898186 -236.5625 91.9375 C-236.01932129 92.68950684 -235.47614258 93.44151367 -234.91650391 94.21630859 C-229.64643505 101.50356874 -224.33073162 108.75704201 -219 116 C-214.54704969 112.38002071 -210.47699466 108.51252043 -206.49609375 104.3828125 C-205.76116196 103.62541779 -205.76116196 103.62541779 -205.01138306 102.85272217 C-202.96385433 100.74222886 -200.91743925 98.63144641 -198.89477539 96.49707031 C-197.40062929 94.92418478 -195.88802872 93.37118932 -194.37109375 91.8203125 C-193.48349365 90.89492676 -192.59589355 89.96954102 -191.68139648 89.01611328 C-189 87 -189 87 -185.83764648 86.55273438 C-181.8560604 87.18030606 -180.07968652 89.40861145 -177.625 92.375 C-177.17511719 92.88289062 -176.72523437 93.39078125 -176.26171875 93.9140625 C-173 97.68139723 -173 97.68139723 -173 100 C-143.83445933 83.33779084 -143.83445933 83.33779084 -115.14453125 65.87890625 C-111.45586371 63.67487011 -107.69278106 61.63329454 -103.9152832 59.58618164 C-89.63835886 51.81822439 -75.59650553 43.63330723 -61.625 35.33203125 C-55.62467973 31.76934109 -49.59457066 28.25857955 -43.5625 24.75 C-36.16138803 20.44418936 -28.77871224 16.11300408 -21.46313477 11.66308594 C-19.32544251 10.36712796 -17.20298053 9.10032371 -14.9609375 7.9921875 C-11.27891545 6.12917236 -7.90632937 3.7239965 -4.4609375 1.4609375 C-2 0 -2 0 0 0 Z " fill="#5C87B7" transform="translate(1400,536)"/>
<path d="M0 0 C1.55540056 0.07664131 1.55540056 0.07664131 3.14222336 0.15483093 C16.07292152 0.84163384 28.91445577 2.05141587 41.75 3.75 C41.60688199 5.82782443 41.45898703 7.9053202 41.30908203 9.98266602 C41.18631393 11.71807396 41.18631393 11.71807396 41.06106567 13.48854065 C38.96697196 35.44468078 24.71519069 55.50654556 8.75 69.75 C4.93589545 72.70201243 1.074169 75.5879155 -3.25 77.75 C3.66532149 82.52863906 10.82694674 86.77318674 18.125 90.9375 C19.28950751 91.60528134 20.45381128 92.2734181 21.61791992 92.94189453 C23.93479636 94.27199231 26.25253652 95.60054031 28.57080078 96.92822266 C32.7403163 99.3174812 36.90336898 101.7177186 41.0625 104.125 C42.16525269 104.76296509 42.16525269 104.76296509 43.2902832 105.41381836 C51.10794345 109.94442365 58.89576808 114.52594232 66.6875 119.10092163 C76.52936159 124.87818774 86.40034066 130.60291725 96.29125977 136.29589844 C104.43894936 140.98727526 112.56407804 145.71616217 120.67919922 150.46362305 C126.01230664 153.58041427 131.35583466 156.67796245 136.71484375 159.75 C137.29835602 160.08491455 137.88186829 160.4198291 138.48306274 160.76489258 C141.29846702 162.38081992 144.11539838 163.99392523 146.93554688 165.6015625 C166.69973523 176.93819107 166.69973523 176.93819107 172.125 186.0625 C173.65439581 192.638902 173.62172535 198.92241346 170.09790039 204.82519531 C165.44123753 211.47491999 157.83166723 215.27381753 150.9375 219.1875 C149.88997559 219.79021729 148.84245117 220.39293457 147.76318359 221.01391602 C145.54713933 222.28833055 143.32932737 223.55967565 141.10986328 224.828125 C136.76430792 227.31382561 132.43073153 229.8199981 128.09667969 232.32568359 C121.51744897 236.12783678 114.93137032 239.91812215 108.34619141 243.70996094 C96.68967926 250.42264759 85.03669978 257.13865083 73.453125 263.9765625 C67.20564523 267.66419466 60.94613378 271.33134397 54.6875 275 C54.06198242 275.36668793 53.43646484 275.73337585 52.79199219 276.11117554 C42.41761465 282.19220663 32.03509387 288.25915763 21.64453125 294.3125 C17.47172509 296.74399858 13.30318388 299.18265232 9.13671875 301.625 C8.04721924 302.26284424 6.95771973 302.90068848 5.83520508 303.55786133 C3.75212731 304.77754463 1.66988234 305.99865179 -0.41137695 307.22143555 C-15.63929266 316.1303997 -15.63929266 316.1303997 -25.25 314.75 C-31.78125735 312.58524898 -36.48916552 309.50877779 -40.25 303.75 C-42.28685846 298.87763386 -42.52900846 294.37716981 -42.49050903 289.16995239 C-42.49221788 288.3195305 -42.49392673 287.46910862 -42.49568737 286.59291637 C-42.4989747 283.75082265 -42.48799102 280.9089664 -42.47705078 278.06689453 C-42.4764865 276.02662664 -42.47680355 273.98635835 -42.47793579 271.9460907 C-42.47850966 266.41146294 -42.46674975 260.87692186 -42.45278788 255.34231424 C-42.44028626 249.55673569 -42.43911046 243.77115516 -42.43673706 237.98556519 C-42.43052063 227.03158715 -42.41410757 216.07764903 -42.39403808 205.12368858 C-42.37168419 192.65220826 -42.36068693 180.18072603 -42.35064721 167.70923066 C-42.32974151 142.05613164 -42.29456233 116.40306806 -42.25 90.75 C-43.34101013 90.75811203 -44.43202026 90.76622406 -45.55609131 90.77458191 C-47.00581784 90.78114358 -48.45554529 90.78750613 -49.90527344 90.79370117 C-50.98063858 90.8024892 -50.98063858 90.8024892 -52.07772827 90.81145477 C-57.70515805 90.82946432 -62.99863671 90.28457914 -68.5 89.0625 C-69.34570557 88.88243408 -70.19141113 88.70236816 -71.06274414 88.5168457 C-77.83289098 86.99976771 -84.04202285 84.87563424 -90.25 81.75 C-91.89935547 80.94369141 -91.89935547 80.94369141 -93.58203125 80.12109375 C-100.25222533 76.71357746 -105.92990377 73.03795063 -111.25 67.75 C-105.55586719 55.08782339 -93.99285401 43.74687449 -84.8125 33.5 C-84.18054214 32.79292404 -83.54858429 32.08584808 -82.8974762 31.35734558 C-58.41541184 4.31879674 -35.91380232 -1.77071129 0 0 Z " fill="#6176C7" transform="translate(1216.25,200.25)"/>
<path d="M0 0 C76.23 0 152.46 0 231 0 C231 44.88 231 89.76 231 136 C218.60881467 129.24117164 218.60881467 129.24117164 214.2578125 126.73046875 C213.26942383 126.16054199 212.28103516 125.59061523 211.26269531 125.00341797 C210.22725586 124.40416504 209.19181641 123.80491211 208.125 123.1875 C207.0122168 122.54441895 205.89943359 121.90133789 204.75292969 121.23876953 C186.90322271 110.91401262 169.13088066 100.45587613 151.38574219 89.95263672 C144.39563349 85.81769692 137.39117505 81.70748064 130.38317871 77.60296631 C121.16579099 72.20439842 111.9492747 66.80439907 102.75 61.375 C101.89180664 60.86880127 101.03361328 60.36260254 100.14941406 59.84106445 C95.1348675 56.87601039 90.13956294 53.88049118 85.15625 50.86328125 C83.99514281 50.1615787 82.83401015 49.45991828 81.67285156 48.75830078 C79.42685982 47.40101253 77.18480306 46.03784 74.94433594 44.67138672 C73.93661133 44.06182129 72.92888672 43.45225586 71.890625 42.82421875 C70.99375977 42.27854248 70.09689453 41.73286621 69.17285156 41.1706543 C67.11790338 39.84189791 67.11790338 39.84189791 65 40 C65 39.34 65 38.68 65 38 C64.36578125 37.77699219 63.7315625 37.55398437 63.078125 37.32421875 C58.77823047 35.47439103 54.80199484 33.14868983 50.75 30.8125 C49.38572876 30.02987793 49.38572876 30.02987793 47.99389648 29.23144531 C39.55428627 24.3664177 31.2060268 19.3520583 22.86450195 14.32128906 C15.3052485 9.76613342 7.70072916 5.31185729 0 1 C0 0.67 0 0.34 0 0 Z " fill="#4039E0" transform="translate(1169,0)"/>
<path d="M0 0 C0 44.88 0 89.76 0 136 C-75.9 136 -151.8 136 -230 136 C-230 135.34 -230 134.68 -230 134 C-229.15824219 133.5359375 -228.31648438 133.071875 -227.44921875 132.59375 C-217.48578471 127.06203597 -207.67697631 121.28318167 -197.88134766 115.46044922 C-196.70737757 114.76266032 -195.53338642 114.06490686 -194.359375 113.3671875 C-193.76816864 113.01582733 -193.17696228 112.66446716 -192.56784058 112.30245972 C-186.0560641 108.43509938 -179.52923236 104.59346408 -172.99716187 100.76049805 C-171.71546904 100.00824272 -170.43407261 99.25548216 -169.15298462 98.50219727 C-167.36447443 97.45067424 -165.57496754 96.40086897 -163.78515625 95.3515625 C-162.76301025 94.75166504 -161.74086426 94.15176758 -160.68774414 93.53369141 C-158 92 -158 92 -155.70092773 90.91552734 C-153.81581718 90.11132302 -153.81581718 90.11132302 -153 88 C-141.78 88 -130.56 88 -119 88 C-119 84.37 -119 80.74 -119 77 C-122.63 77 -126.26 77 -130 77 C-127.66669586 74.66669586 -126.24141903 73.41004853 -123.5 71.86328125 C-122.79206299 71.45940186 -122.08412598 71.05552246 -121.35473633 70.6394043 C-120.57767334 70.20152588 -119.80061035 69.76364746 -119 69.3125 C-117.2739378 68.3269237 -115.54872672 67.3398558 -113.82421875 66.3515625 C-112.88884277 65.81563477 -111.9534668 65.27970703 -110.98974609 64.72753906 C-105.56907723 61.59536097 -100.19325868 58.38758687 -94.8125 55.1875 C-84.04294958 48.78848026 -73.23638582 42.45503894 -62.41015625 36.15234375 C-57.22309321 33.13233639 -52.04720424 30.09381794 -46.8762207 27.04638672 C-42.20791203 24.29626377 -37.5347712 21.55446025 -32.859375 18.81640625 C-32.22138474 18.44271408 -31.58339447 18.06902191 -30.92607117 17.68400574 C-28.34249777 16.17075864 -25.75892343 14.65751449 -23.17471313 13.14535522 C-21.35708437 12.08174979 -19.53978623 11.01758233 -17.72265625 9.953125 C-17.14538284 9.6151741 -16.56810944 9.27722321 -15.9733429 8.92903137 C-11.5528315 6.33638376 -7.16384891 3.69422786 -2.79077148 1.02246094 C-1 0 -1 0 0 0 Z " fill="#4884A7" transform="translate(1400,652)"/>
<path d="M0 0 C1.11813583 -0.00637985 2.23627167 -0.0127597 3.38829041 -0.01933289 C4.58216873 -0.02044571 5.77604706 -0.02155853 7.00610352 -0.02270508 C8.24618668 -0.02603348 9.48626984 -0.02936188 10.76393127 -0.03279114 C13.38216787 -0.03784571 16.00041088 -0.04019992 18.61865234 -0.04003906 C21.29450211 -0.03995764 23.97018128 -0.04692638 26.64599609 -0.06054688 C30.51608491 -0.07888401 34.38597557 -0.08377613 38.25610352 -0.08520508 C39.44795761 -0.09239059 40.63981171 -0.09957611 41.86778259 -0.10697937 C55.83427752 -0.06865761 55.83427752 -0.06865761 59.99047852 3.82495117 C60.45067383 4.5494043 60.91086914 5.27385742 61.38500977 6.02026367 C61.96379883 6.92260742 62.54258789 7.82495117 63.13891602 8.75463867 C64.15791992 10.43299805 64.15791992 10.43299805 65.19750977 12.14526367 C66.08159919 13.56715432 66.96571585 14.98902803 67.84985352 16.41088867 C73.62097419 25.79149519 79.05050449 35.35123189 84.32250977 45.02026367 C85.15709717 46.54417725 85.15709717 46.54417725 86.00854492 48.09887695 C86.52723145 49.06035645 87.04591797 50.02183594 87.58032227 51.01245117 C88.03810059 51.8592041 88.49587891 52.70595703 88.9675293 53.57836914 C92.52936008 61.01169364 92.52936008 61.01169364 91.39331055 64.89233398 C90.89814941 65.82658203 90.40298828 66.76083008 89.89282227 67.72338867 C89.33643066 68.78984619 88.78003906 69.85630371 88.20678711 70.95507812 C87.58497559 72.09033936 86.96316406 73.22560059 86.32250977 74.39526367 C85.68716557 75.58521646 85.05257408 76.77557142 84.41870117 77.96630859 C78.04716999 89.81913883 71.07657094 101.35775898 63.76293945 112.65161133 C62.21465941 115.02300799 62.21465941 115.02300799 61.20239258 117.16625977 C60.36157227 118.81323242 60.36157227 118.81323242 58.19750977 121.14526367 C50.79530762 122.82632002 42.69119403 122.30597999 35.14672852 122.31323242 C33.92975784 122.31656082 32.71278717 122.31988922 31.4589386 122.32331848 C28.90329361 122.32835394 26.34764213 122.33072786 23.79199219 122.33056641 C19.87953024 122.33276675 15.96734434 122.35099619 12.05493164 122.36987305 C9.56469823 122.37280489 7.07446348 122.37479108 4.58422852 122.37573242 C2.83259651 122.3865107 2.83259651 122.3865107 1.045578 122.39750671 C-0.04292953 122.39443008 -1.13143707 122.39135345 -2.25292969 122.38818359 C-3.20649857 122.38960861 -4.16006744 122.39103363 -5.14253235 122.39250183 C-8.07191979 122.12022069 -10.17703873 121.46321223 -12.80249023 120.14526367 C-14.48268439 118.1194124 -15.8506634 116.2313713 -17.23999023 114.02026367 C-17.65756592 113.37355713 -18.0751416 112.72685059 -18.50537109 112.06054688 C-26.97715183 98.75998883 -34.94011718 85.06102412 -42.23999023 71.08276367 C-42.62356689 70.37595459 -43.00714355 69.66914551 -43.40234375 68.94091797 C-45.77110132 64.25946475 -46.34408018 61.35421496 -44.80249023 56.14526367 C-42.91850491 51.98960542 -40.76211274 48.01057509 -38.55249023 44.02026367 C-37.61663086 42.30830811 -37.61663086 42.30830811 -36.66186523 40.56176758 C-30.77505806 29.85710881 -24.56158988 19.32446774 -17.80249023 9.14526367 C-17.3087793 8.37859375 -16.81506836 7.61192383 -16.30639648 6.82202148 C-15.56196289 5.7329248 -15.56196289 5.7329248 -14.80249023 4.62182617 C-14.15280273 3.65237061 -14.15280273 3.65237061 -13.48999023 2.66333008 C-9.98381532 -0.49080702 -4.51168025 0.01758156 0 0 Z " fill="#928CC4" transform="translate(651.802490234375,211.854736328125)"/>
<path d="M0 0 C1.04091797 0.00902344 2.08183594 0.01804687 3.15429688 0.02734375 C4.76208008 0.09501953 4.76208008 0.09501953 6.40234375 0.1640625 C8.01592773 0.17373047 8.01592773 0.17373047 9.66210938 0.18359375 C15.15936915 0.29946903 18.77255034 0.47548795 23.33984375 3.7890625 C25.46629433 6.97873837 25.58853296 7.7493283 25.58035278 11.40177917 C25.58447678 12.82154305 25.58447678 12.82154305 25.58868408 14.26998901 C25.57789825 15.82473434 25.57789825 15.82473434 25.56689453 17.41088867 C25.56718658 18.50372665 25.56747864 19.59656464 25.56777954 20.72251892 C25.56638382 24.34243654 25.55081105 27.9621495 25.53515625 31.58203125 C25.53142699 34.08881009 25.52857961 36.59559039 25.52658081 39.10237122 C25.5197192 45.03093749 25.50394888 50.95943787 25.48388183 56.88797027 C25.45933887 64.29964937 25.44859309 71.71133755 25.4375 79.12304688 C25.41603789 92.34508954 25.38227697 105.56707136 25.33984375 118.7890625 C26.28988281 118.76457031 27.23992187 118.74007812 28.21875 118.71484375 C31.33984375 118.7890625 31.33984375 118.7890625 33.27734375 119.9765625 C34.33984375 121.7890625 34.33984375 121.7890625 34.08984375 124.4140625 C33.33984375 126.7890625 33.33984375 126.7890625 32.33984375 127.7890625 C30.50958738 127.89207464 28.67532388 127.92427941 26.84217834 127.92950439 C25.64888412 127.93521454 24.4555899 127.94092468 23.22613525 127.94680786 C21.89172374 127.94805334 20.5573121 127.94917841 19.22290039 127.95019531 C17.82699959 127.95482114 16.43110006 127.95984548 15.03520203 127.96524048 C11.2335958 127.97838819 7.43200725 127.98481391 3.63038182 127.98925114 C1.2579183 127.99217773 -1.11454034 127.99628171 -3.48700142 128.00075531 C-10.90230473 128.01443579 -18.31759694 128.02410004 -25.732912 128.0279572 C-34.3070782 128.03244106 -42.88108522 128.05000172 -51.455203 128.0789578 C-58.07346201 128.10053668 -64.69167612 128.11065943 -71.30996996 128.11199832 C-75.26718889 128.11304898 -79.22425831 128.1190119 -83.18144035 128.13681793 C-86.90211658 128.15323358 -90.62252988 128.15548615 -94.34322929 128.14667892 C-96.36581193 128.14553496 -98.38838559 128.15930206 -100.41091919 128.1734314 C-101.60703323 128.16786224 -102.80314728 128.16229309 -104.0355072 128.15655518 C-105.60152884 128.15875502 -105.60152884 128.15875502 -107.19918728 128.1609993 C-108.01130704 128.03826015 -108.8234268 127.91552101 -109.66015625 127.7890625 C-111.66015625 124.7890625 -111.66015625 124.7890625 -111.47265625 122.7890625 C-110.53565948 120.48260892 -109.63068949 119.3048573 -107.66015625 117.7890625 C-106.67015625 117.7890625 -105.68015625 117.7890625 -104.66015625 117.7890625 C-103.92874117 111.50672941 -103.66382022 105.42805773 -103.84765625 99.1015625 C-103.9185981 92.78128845 -103.10223092 89.05973934 -99.66015625 83.7890625 C-98.67015625 83.7890625 -97.68015625 83.7890625 -96.66015625 83.7890625 C-96.16515625 82.7990625 -96.16515625 82.7990625 -95.66015625 81.7890625 C-91.7644649 81.70173524 -87.86902643 81.64856065 -83.97265625 81.6015625 C-82.86986328 81.57642578 -81.76707031 81.55128906 -80.63085938 81.52539062 C-79.56416016 81.51572266 -78.49746094 81.50605469 -77.3984375 81.49609375 C-76.41915283 81.4803833 -75.43986816 81.46467285 -74.4309082 81.44848633 C-71.16346295 81.85011521 -69.30475971 82.86105371 -66.66015625 84.7890625 C-65.18110387 87.74716726 -65.53824722 90.743778 -65.5625 93.984375 C-65.56391495 94.69181854 -65.5653299 95.39926208 -65.56678772 96.12814331 C-65.57239025 98.39015919 -65.58494307 100.65207648 -65.59765625 102.9140625 C-65.60267093 104.44661315 -65.60723389 105.97916536 -65.61132812 107.51171875 C-65.62236048 111.27087138 -65.63962673 115.02995022 -65.66015625 118.7890625 C-64.73203125 118.6034375 -63.80390625 118.4178125 -62.84765625 118.2265625 C-59.66015625 117.7890625 -59.66015625 117.7890625 -56.66015625 118.7890625 C-56.67681084 117.54664543 -56.67681084 117.54664543 -56.69380188 116.27912903 C-56.79406201 108.466505 -56.87015042 100.65409758 -56.91921711 92.84097767 C-56.94529132 88.82428822 -56.98064803 84.80813112 -57.03735352 80.79174805 C-57.09175334 76.91432669 -57.12159316 73.03741675 -57.13454247 69.15964317 C-57.14376827 67.68162676 -57.16178483 66.20363779 -57.18880653 64.72583961 C-57.22520713 62.65230876 -57.23009764 60.58087996 -57.2277832 58.50708008 C-57.24443779 56.73836296 -57.24443779 56.73836296 -57.26142883 54.93391418 C-56.47883678 50.84070255 -54.86802417 49.36045118 -51.66015625 46.7890625 C-48.78515625 46.15795898 -48.78515625 46.15795898 -45.66015625 46.16015625 C-44.52578125 46.15822266 -43.39140625 46.15628906 -42.22265625 46.15429688 C-41.04703125 46.17814453 -39.87140625 46.20199219 -38.66015625 46.2265625 C-36.89671875 46.21012695 -36.89671875 46.21012695 -35.09765625 46.19335938 C-25.24611204 46.2773214 -25.24611204 46.2773214 -20.66015625 50.7890625 C-19.73288093 53.57088847 -19.47296868 55.5176458 -19.34375 58.41015625 C-19.30185547 59.33562256 -19.25996094 60.26108887 -19.21679688 61.21459961 C-19.17748047 62.20854736 -19.13816406 63.20249512 -19.09765625 64.2265625 C-19.05447266 65.25338135 -19.01128906 66.2802002 -18.96679688 67.33813477 C-18.67755677 74.78893693 -18.6207073 82.21954235 -18.67944336 89.67456055 C-18.71788801 97.4113497 -18.26334145 105.07690887 -17.66015625 112.7890625 C-15.01694231 111.9792967 -15.01694231 111.9792967 -12.66015625 109.7890625 C-11.88525102 106.61182221 -12.03290152 103.45124323 -12.09594727 100.19628906 C-12.09510132 99.21223083 -12.09425537 98.22817261 -12.09338379 97.21429443 C-12.09455974 95.07477737 -12.10714714 92.93524353 -12.12970161 90.79584503 C-12.16428798 87.4075988 -12.16716136 84.02066552 -12.16136169 80.63226318 C-12.15304471 72.21403812 -12.19457957 63.79623493 -12.2442627 55.37817383 C-12.2854171 48.27154557 -12.30297473 41.16569074 -12.2869091 34.05895233 C-12.28903409 30.7242757 -12.32618115 27.39113402 -12.364151 24.05670166 C-12.36251266 22.00427019 -12.35914058 19.95183913 -12.35375977 17.89941406 C-12.38387398 16.51357117 -12.38387398 16.51357117 -12.41459656 15.09973145 C-12.35149035 9.32480596 -11.20558406 6.2658798 -7.22219086 2.04712486 C-4.83919867 0.12786343 -3.02108305 -0.05631433 0 0 Z " fill="#E7D6DA" transform="translate(176.66015625,523.2109375)"/>
<path d="M0 0 C3.96 0 7.92 0 12 0 C13.93228141 13.81418113 15.21111337 27.63213723 15.9375 41.5625 C16.01839371 43.10285101 16.01839371 43.10285101 16.10092163 44.67432022 C17.36617285 71.95899424 14.74356577 92.66394826 -4.1026783 113.34802818 C-9.00610193 118.54951018 -14.17753574 123.41912611 -19.5 128.1875 C-20.25334248 128.86294483 -21.00668495 129.53838966 -21.78285599 130.23430252 C-31.18553358 138.59630672 -40.90573614 146.49015981 -51 154 C-54.98550683 150.93447928 -57.7782097 147.86926265 -60.4375 143.625 C-61.01890747 142.6980835 -61.01890747 142.6980835 -61.61206055 141.75244141 C-74.89547652 120.03497932 -78.45417536 94.59569574 -72.59960938 69.90966797 C-68.03132001 51.87672498 -58.54890529 37.53006771 -45.625 24.375 C-45.10059326 23.84092529 -44.57618652 23.30685059 -44.03588867 22.7565918 C-40.24466821 19 -40.24466821 19 -38 19 C-38 18.34 -38 17.68 -38 17 C-10.82203201 1.4893415 -10.82203201 1.4893415 0 2 C0 1.34 0 0.68 0 0 Z " fill="#7979D8" transform="translate(1148,105)"/>
<path d="M0 0 C1.55391638 0.07792534 1.55391638 0.07792534 3.13922501 0.15742493 C16.05232837 0.85539562 28.87303375 2.08463102 41.6875 3.8125 C41.54438199 5.89032443 41.39648703 7.9678202 41.24658203 10.04516602 C41.12381393 11.78057396 41.12381393 11.78057396 40.99856567 13.55104065 C38.81304348 36.46578956 23.49445388 57.5060582 6.328125 71.7734375 C-0.94060148 77.16400311 -9.04648641 81.19611905 -17.3125 84.8125 C-17.93382812 85.08932617 -18.55515625 85.36615234 -19.1953125 85.65136719 C-36.8811951 93.14905252 -63.57943259 92.80450226 -81.3125 85.8125 C-103.73269081 76.71165396 -103.73269081 76.71165396 -110.3125 68.8125 C-110.3125 64.1359026 -108.87166115 62.28827077 -106.15698242 58.75878906 C-105.70629804 58.16340993 -105.25561365 57.5680308 -104.79127216 56.95460987 C-98.70496595 49.0298487 -92.19588042 41.47532073 -85.5 34.0625 C-84.85338535 33.34354679 -84.20677071 32.62459358 -83.54056168 31.88385391 C-58.79145969 4.69024493 -36.26911737 -1.82041358 0 0 Z " fill="#7177D4" transform="translate(1216.3125,200.1875)"/>
<path d="M0 0 C5.12607258 -0.17881649 9.68779255 0.39307368 14.625 1.6875 C15.6600769 1.95216064 15.6600769 1.95216064 16.71606445 2.22216797 C23.34294374 3.97887375 29.6703045 6.37527436 36 9 C37.66603892 9.66823389 39.33249371 10.33543625 41 11 C41 11.66 41 12.32 41 13 C41.7321875 13.26039062 42.464375 13.52078125 43.21875 13.7890625 C46.06068812 15.0264232 48.09420236 16.43511388 50.5 18.375 C51.2321875 18.96023437 51.964375 19.54546875 52.71875 20.1484375 C53.4715625 20.75945312 54.224375 21.37046875 55 22 C55.82757812 22.63035156 56.65515625 23.26070312 57.5078125 23.91015625 C65.24413753 30.39751344 70.94046136 39.35556213 76 48 C76.45117188 48.7528125 76.90234375 49.505625 77.3671875 50.28125 C80.29577522 55.59272587 82.12048028 61.13912014 83.8125 66.9375 C84.03180176 67.66461182 84.25110352 68.39172363 84.47705078 69.14086914 C86.23644037 75.53587399 86 79.90412161 86 87 C57.62 87 29.24 87 0 87 C-0.8393463 82.80326852 -1.12143366 79.46812597 -1.11352539 75.23779297 C-1.11367142 74.57863892 -1.11381744 73.91948486 -1.1139679 73.24035645 C-1.11327458 71.07426596 -1.10550729 68.90826287 -1.09765625 66.7421875 C-1.09578938 65.23194424 -1.09436675 63.72170038 -1.09336853 62.2114563 C-1.08955934 58.24406245 -1.07974606 54.27670549 -1.06866455 50.30932617 C-1.05843565 46.27002458 -1.05386253 42.23071707 -1.04882812 38.19140625 C-1.03926493 31.09714396 -1.02476693 24.00290649 -1.00672913 16.90866089 C-1.00217261 14.93911125 -1 12.96955491 -1 11 C-0.84626937 9.10307388 -0.67833145 7.20727167 -0.5 5.3125 C-0.4071875 4.31863281 -0.314375 3.32476562 -0.21875 2.30078125 C-0.11046875 1.16189453 -0.11046875 1.16189453 0 0 Z " fill="#6D6EDA" transform="translate(1172,105)"/>
<path d="M0 0 C51.93289046 0 51.93289046 0 61.2109375 8.80078125 C69.88123138 19.45880626 71.34127666 31.76645573 70 45 C67.66273895 54.2080026 62.80847387 62.76854951 54.75 68 C51.35526316 70 51.35526316 70 49 70 C49.32572998 70.65954681 49.65145996 71.31909363 49.98706055 71.99862671 C53.05196099 78.20627971 56.11308159 84.41578325 59.16993713 90.62740135 C60.74173304 93.82099748 62.31499606 97.01385329 63.89160156 100.20507812 C65.70292632 103.87156177 67.50788428 107.54114701 69.3125 111.2109375 C69.88121826 112.35992523 70.44993652 113.50891296 71.03588867 114.69271851 C71.55642822 115.7536673 72.07696777 116.81461609 72.61328125 117.90771484 C73.07516846 118.84481293 73.53705566 119.78191101 74.01293945 120.74740601 C75 123 75 123 75 125 C71.37 125 67.74 125 64 125 C60.73527258 118.40169795 57.47824004 111.7996758 54.22827148 105.1940918 C53.12165487 102.94760978 52.01294482 100.70215773 50.90209961 98.45776367 C49.30551126 95.2310422 47.71649476 92.00068834 46.12890625 88.76953125 C45.63097061 87.76727005 45.13303497 86.76500885 44.62001038 85.7323761 C44.15960861 84.79177841 43.69920685 83.85118073 43.22485352 82.88208008 C42.8184816 82.05823318 42.41210968 81.23438629 41.99342346 80.38557434 C41 78 41 78 40 73 C30.1 73 20.2 73 10 73 C10 90.16 10 107.32 10 125 C6.7 125 3.4 125 0 125 C0 83.75 0 42.5 0 0 Z " fill="#FAFAFC" transform="translate(795,451)"/>
<path d="M0 0 C51.94886364 0 51.94886364 0 61.2109375 8.8046875 C69.68962068 19.20866118 71.1225683 31.03715826 70 44 C68.27012655 53.06620422 64.23802052 60.96492452 56.83984375 66.6640625 C51.70548184 70 51.70548184 70 49 70 C49.31098129 70.63004944 49.62196259 71.26009888 49.94236755 71.90924072 C52.87445772 77.85140842 55.80280388 83.79540438 58.72697353 89.74147415 C60.23039519 92.79823228 61.73524778 95.85426817 63.2434082 98.90869141 C64.97777025 102.42139212 66.70584177 105.93716804 68.43359375 109.453125 C68.97527695 110.5480426 69.51696014 111.64296021 70.07505798 112.77105713 C70.57550125 113.79181335 71.07594452 114.81256958 71.59155273 115.86425781 C72.03345444 116.76138489 72.47535614 117.65851196 72.9306488 118.58282471 C74 121 74 121 75 125 C71.37 125 67.74 125 64 125 C61.22286915 119.32677305 58.44788057 113.65250505 55.67480469 107.97729492 C54.73267342 106.0499294 53.78997456 104.12284122 52.84667969 102.19604492 C51.48480474 99.41399065 50.12502713 96.6309195 48.765625 93.84765625 C48.34879456 92.99728287 47.93196411 92.14690948 47.50250244 91.27076721 C40 75.89177023 40 75.89177023 40 73 C30.1 73 20.2 73 10 73 C10 90.16 10 107.32 10 125 C6.7 125 3.4 125 0 125 C0 83.75 0 42.5 0 0 Z " fill="#FCFCFC" transform="translate(305,451)"/>
<path d="M0 0 C0.62923584 2.74908861 1.25342016 5.49917856 1.875 8.25 C2.13603516 9.38695312 2.13603516 9.38695312 2.40234375 10.546875 C4.92786207 21.77140088 6.34396119 32.47262099 6.3125 44 C6.32861328 45.18078125 6.34472656 46.3615625 6.36132812 47.578125 C6.36742785 58.65522109 5.03882675 71.4697912 -2.82421875 79.97265625 C-9.44473738 86.11397543 -15.49499218 87.54372603 -24.44140625 87.37109375 C-44.57111368 85.27194753 -62.50336404 70.16768382 -76.83203125 56.984375 C-79.48180725 54.55899444 -82.21710713 52.27025471 -85 50 C-83.4497178 46.35178156 -81.21796957 43.92238887 -78.5 41.0625 C-74.79601194 37.08111779 -71.31744329 32.99598693 -68 28.6875 C-67.57364258 28.15334473 -67.14728516 27.61918945 -66.70800781 27.06884766 C-64.48194196 24.21823257 -62.69686137 21.50277186 -61.203125 18.203125 C-59.11709024 13.96404523 -57.08909407 10.54302442 -53 8 C-44.54863011 5.39947393 -35.54090339 5.04030524 -26.76904297 4.35644531 C-21.35100028 3.84405107 -16.07477898 2.85174363 -10.75 1.75 C-2.12568618 0 -2.12568618 0 0 0 Z " fill="#8A88BD" transform="translate(768,336)"/>
<path d="M0 0 C8.46247153 4.5111366 16.00876689 10.15787828 23.39453125 16.23828125 C24.02020996 16.75036133 24.64588867 17.26244141 25.29052734 17.79003906 C27.2307612 19.38651357 29.15879923 20.99637845 31.08203125 22.61328125 C31.68273437 23.11311523 32.2834375 23.61294922 32.90234375 24.12792969 C35.77175769 26.58151054 38.07408852 28.64326943 39.39453125 32.23828125 C38.80027344 32.86992187 38.20601562 33.5015625 37.59375 34.15234375 C32.84252126 39.28041956 28.28713694 44.49908729 23.95703125 49.98828125 C23.48579834 50.56642578 23.01456543 51.14457031 22.52905273 51.74023438 C20.07140892 54.8170178 18.05453527 57.77150201 16.34375 61.32421875 C14.01190131 65.81425067 11.77476312 69.52167715 7.39453125 72.23828125 C-0.76725674 74.7233296 -9.39564477 75.15525229 -17.86828613 75.75231934 C-23.66264093 76.17737408 -29.20598916 77.16897886 -34.85546875 78.48828125 C-42.40919532 80.23828125 -42.40919532 80.23828125 -45.60546875 80.23828125 C-46.98529764 73.58027194 -48.31695156 66.91455619 -49.60546875 60.23828125 C-49.84007812 59.03816406 -50.0746875 57.83804688 -50.31640625 56.6015625 C-53.20815059 39.56541649 -54.39101034 18.46745181 -45.05859375 3.17578125 C-33.52326996 -12.20465047 -15.05268266 -7.58595999 0 0 Z " fill="#9F96CA" transform="translate(626.60546875,129.76171875)"/>
<path d="M0 0 C0.22550537 0.67764404 0.45101074 1.35528809 0.68334961 2.0534668 C5.03713559 15.06436514 9.46431604 27.90849563 15.34350586 40.32299805 C17.48582604 45.01160794 18.68710988 47.90671751 17 53 C15.5492131 56.7287297 13.97327493 60.39494115 12.375 64.0625 C7.61652091 75.19476892 3.63136467 86.45658913 0 98 C-22.41101886 93.16125729 -51.88369476 82.44624002 -65.52734375 62.80078125 C-69.41495091 56.11323541 -70.30985155 49.61585114 -69 42 C-67.5013195 38.21108241 -65.52695566 35.18272044 -63 32 C-62.51660156 31.38769531 -62.03320312 30.77539062 -61.53515625 30.14453125 C-49.07356423 16.28774826 -18.51272107 0 0 0 Z " fill="#A097C2" transform="translate(574,224)"/>
<path d="M0 0 C7.88047824 6.72371079 11.230692 14.98491081 13 25 C14.38608094 45.02839168 11.93464728 64.61001232 7 84 C5.92741943 83.82871582 4.85483887 83.65743164 3.74975586 83.48095703 C-0.30365059 82.83417922 -4.35745703 82.18993759 -8.41137695 81.54638672 C-10.15204362 81.26971385 -11.89260712 80.992391 -13.63305664 80.71435547 C-15.3236697 80.44436422 -17.01444525 80.17538845 -18.7053833 79.90744019 C-20.38337376 79.64105213 -22.06090973 79.37178522 -23.73797607 79.09963989 C-27.62579091 78.47923984 -31.49105501 77.92494553 -35.41308594 77.57373047 C-46.33039942 76.56496393 -46.33039942 76.56496393 -49.1953125 73.3046875 C-49.83210937 72.17289062 -50.46890625 71.04109375 -51.125 69.875 C-51.90128564 68.60292548 -52.68414941 67.33484796 -53.47265625 66.0703125 C-53.87242676 65.40547852 -54.27219727 64.74064453 -54.68408203 64.05566406 C-57.02580467 60.39753704 -59.79760822 57.09301636 -62.5625 53.75 C-63.11139893 53.07952637 -63.66029785 52.40905273 -64.22583008 51.71826172 C-68.65986719 46.3332691 -73.24818348 41.10789579 -78 36 C-71.14703836 19.65550325 -43.19146535 5.68352221 -28 -1 C-19.43659582 -4.01923455 -7.93848074 -5.08127704 0 0 Z " fill="#8E88CC" transform="translate(761,126)"/>
<path d="M0 0 C1.001521 0.17128418 2.00304199 0.34256836 3.03491211 0.51904297 C6.83821059 1.16828911 10.64247573 1.81172024 14.44702148 2.45361328 C16.0771631 2.72943177 17.70705719 3.00671824 19.33666992 3.28564453 C21.71205295 3.6919311 24.08828018 4.09286871 26.46484375 4.4921875 C27.2531105 4.62683914 28.04137726 4.76149078 28.85353088 4.90022278 C32.83353687 5.55984129 36.78059756 6.10107059 40.80249023 6.4284668 C41.57061539 6.49587067 42.33874054 6.56327454 43.13014221 6.63272095 C44.57466068 6.75133134 46.02131715 6.84712994 47.46910095 6.91513062 C51.32084699 7.23717789 53.42766988 8.01845579 55.92797852 10.86791992 C57.55986436 13.17512967 59.11625131 15.38874394 60.47265625 17.859375 C63.23194852 22.56633649 66.61992098 26.64534537 70.125 30.8125 C70.72352783 31.53244141 71.32205566 32.25238281 71.9387207 32.99414062 C76.18895874 38.08948618 80.51398684 43.10996702 85 48 C79.06633177 62.51925521 54.15509967 76.74761933 40.30078125 82.63671875 C30.95681423 86.28850429 21.65309682 89.05236522 11.58203125 86.3515625 C4.77404431 83.27019124 0.66435953 78.00017098 -2.25 71.25 C-5.42205155 62.32267461 -6.36696491 53.36643338 -6.3125 43.9375 C-6.30903564 42.94306885 -6.30557129 41.9486377 -6.30200195 40.92407227 C-6.1688028 31.73333101 -4.91859031 22.96936542 -3 14 C-2.74428223 12.79875488 -2.48856445 11.59750977 -2.22509766 10.35986328 C-1.48707366 6.90577214 -0.74512508 3.45256523 0 0 Z " fill="#958EBD" transform="translate(581,336)"/>
<path d="M0 0 C23.59757569 5.81020222 52.94459185 15.80616487 66.9375 37.125 C70.28028373 43.64398356 70.25468911 50.79168869 68.18359375 57.73828125 C60.27935311 75.44708519 39.48718074 84.62833616 22.44140625 91.33984375 C7.22744967 97.11493747 7.22744967 97.11493747 0 97 C-0.2928186 96.11985229 -0.2928186 96.11985229 -0.59155273 95.22192383 C-4.61876627 83.19399498 -8.88762595 71.39316228 -14.11694336 59.8293457 C-18.76410497 49.42412661 -18.76410497 49.42412661 -17.35180664 44.94360352 C-16.3337282 42.44103631 -15.21498435 40.00604122 -14.0625 37.5625 C-8.96814631 26.27955447 -4.90649096 14.73841017 -1 3 C-0.67 2.01 -0.34 1.02 0 0 Z " fill="#8582C5" transform="translate(775,224)"/>
<path d="M0 0 C3.3 0 6.6 0 10 0 C16.12471014 18.03152614 22.06461944 36.09491842 27.47412109 54.35522461 C30.20052337 63.51782942 33.15912839 72.58443743 36.20944214 81.64395142 C38.36481634 88.06747408 40.47505337 94.5059633 42.57958984 100.94628906 C43.1183181 102.59124568 43.65940541 104.23543123 44.20263672 105.87890625 C45.00265986 108.30029067 45.79509542 110.72404138 46.5859375 113.1484375 C46.82960052 113.88065521 47.07326355 114.61287292 47.3243103 115.36727905 C48.43184418 118.78875231 49 121.36141178 49 125 C45.7 125 42.4 125 39 125 C37.57037796 120.49935211 36.14636918 115.99698164 34.72753906 111.49291992 C34.24405426 109.96085717 33.75903758 108.42927697 33.27246094 106.89819336 C32.57343966 104.6977029 31.87994097 102.49553739 31.1875 100.29296875 C30.96876221 99.60849167 30.75002441 98.92401459 30.5246582 98.21879578 C29.63016913 95.35744311 29 93.01853184 29 90 C13.16 90 -2.68 90 -19 90 C-19.66 92.97 -20.32 95.94 -21 99 C-21.61973929 101.19710012 -22.26627165 103.38690418 -22.9453125 105.56640625 C-23.29980469 106.71044922 -23.65429688 107.85449219 -24.01953125 109.03320312 C-24.38433594 110.19787109 -24.74914062 111.36253906 -25.125 112.5625 C-25.49753906 113.76197266 -25.87007812 114.96144531 -26.25390625 116.19726562 C-27.16605926 119.13252725 -28.08149528 122.06672103 -29 125 C-32.3 125 -35.6 125 -39 125 C-36.52997756 114.48886964 -33.60043007 104.2290845 -30.19915771 93.98272705 C-28.86160988 89.95207666 -27.54337201 85.91509665 -26.22265625 81.87890625 C-25.95259766 81.0550946 -25.68253906 80.23128296 -25.40429688 79.38250732 C-22.65661052 70.9855399 -20.00911455 62.5581476 -17.375 54.125 C-13.78018452 42.62912023 -10.14035219 31.14906751 -6.4375 19.6875 C-6.22526794 19.03033997 -6.01303589 18.37317993 -5.79437256 17.69610596 C-3.8858569 11.78956131 -1.96917123 5.88664103 0 0 Z " fill="#F9FAFB" transform="translate(727,451)"/>
<path d="M0 0 C3.63 0 7.26 0 11 0 C11 55.44 11 110.88 11 168 C66.44 168 121.88 168 179 168 C179 171.63 179 175.26 179 179 C119.93 179 60.86 179 0 179 C0 119.93 0 60.86 0 0 Z " fill="#93B2C8" transform="translate(1102,561)"/>
<path d="M0 0 C7.72383641 5.73304477 13.34836495 11.65242939 16 21 C16.8697507 30.10204217 16.3687649 37.90403707 12 46 C11.46375 47.051875 10.9275 48.10375 10.375 49.1875 C4.19478284 56.50617822 -4.12691799 61.18055654 -13.62109375 62.3125 C-23.25642179 62.74984822 -30.98689452 60.05911792 -38.375 53.875 C-44.47387985 48.00882781 -48.56173543 40.82386182 -49.203125 32.30078125 C-49.38935151 20.42884105 -46.45268718 13.00254022 -38.44140625 4.30859375 C-27.92385113 -5.75496618 -12.52635863 -6.76856554 0 0 Z " fill="#FEFDFE" transform="translate(691,244)"/>
<path d="M0 0 C1.984375 1.6953125 1.984375 1.6953125 3.75 4.125 C4.43191406 5.04539062 5.11382813 5.96578125 5.81640625 6.9140625 C6.89728516 8.44160156 6.89728516 8.44160156 8 10 C8.75152344 11.03898438 9.50304688 12.07796875 10.27734375 13.1484375 C11.94175641 15.45645498 13.59204193 17.77388029 15.234375 20.09765625 C18.27504011 24.39717437 21.35352063 28.66898186 24.4375 32.9375 C24.98067871 33.68950684 25.52385742 34.44151367 26.08349609 35.21630859 C31.35356495 42.50356874 36.66926838 49.75704201 42 57 C46.45295031 53.38002071 50.52300534 49.51252043 54.50390625 45.3828125 C55.23883804 44.62541779 55.23883804 44.62541779 55.98861694 43.85272217 C58.03614567 41.74222886 60.08256075 39.63144641 62.10522461 37.49707031 C63.59937071 35.92418478 65.11197128 34.37118932 66.62890625 32.8203125 C67.51650635 31.89492676 68.40410645 30.96954102 69.31860352 30.01611328 C72 28 72 28 75.18652344 27.57910156 C79.05821864 28.15831039 80.17550141 29.66519181 82.6875 32.625 C83.11047363 33.11572998 83.53344727 33.60645996 83.96923828 34.11206055 C87.69768149 38.49062285 91.22851539 43.03689971 94.74609375 47.58544922 C98.54046801 52.4789663 102.51590958 57.19176876 106.58935547 61.85473633 C110.87800799 66.78239657 114.94280636 71.88092517 119 77 C119.01458252 76.10692139 119.02916504 75.21384277 119.04418945 74.29370117 C119.10527077 70.97782722 119.17942478 67.66278101 119.26245117 64.34741211 C119.29569001 62.91295372 119.32372535 61.47836487 119.34643555 60.04370117 C119.38000271 57.98039193 119.43231413 55.91827697 119.48828125 53.85546875 C119.51446533 52.61434326 119.54064941 51.37321777 119.56762695 50.09448242 C120 47 120 47 121.37573242 45.0949707 C123.71845634 43.51566561 125.23842057 43.58576309 128 44 C130.18696144 45.63254298 130.91864297 46.52188164 131.38095093 49.23876953 C131.3845311 50.5475708 131.3845311 50.5475708 131.38818359 51.8828125 C131.39764008 52.87394043 131.40709656 53.86506836 131.4168396 54.88623047 C131.40773056 56.48942139 131.40773056 56.48942139 131.3984375 58.125 C131.40274277 59.77266357 131.40274277 59.77266357 131.40713501 61.45361328 C131.40917736 63.77702347 131.40363563 66.10045078 131.39111328 68.42382812 C131.37506278 71.98606712 131.39095698 75.54717142 131.41015625 79.109375 C131.40817385 81.36458585 131.40433024 83.61979598 131.3984375 85.875 C131.40451019 86.94379395 131.41058289 88.01258789 131.4168396 89.11376953 C131.40265488 90.60046143 131.40265488 90.60046143 131.38818359 92.1171875 C131.38579681 92.98972168 131.38341003 93.86225586 131.38095093 94.76123047 C131 97 131 97 129.78091431 98.78091431 C127.43909257 100.38395684 125.94597978 100.38044555 123.1171875 100.38818359 C122.12605957 100.39764008 121.13493164 100.40709656 120.11376953 100.4168396 C119.04497559 100.41076691 117.97618164 100.40469421 116.875 100.3984375 C115.77655762 100.40130768 114.67811523 100.40417786 113.54638672 100.40713501 C111.22297653 100.40917736 108.89954922 100.40363563 106.57617188 100.39111328 C103.01393288 100.37506278 99.45282858 100.39095698 95.890625 100.41015625 C93.63541415 100.40817385 91.38020402 100.40433024 89.125 100.3984375 C88.05620605 100.40451019 86.98741211 100.41058289 85.88623047 100.4168396 C84.39953857 100.40265488 84.39953857 100.40265488 82.8828125 100.38818359 C82.01027832 100.38579681 81.13774414 100.38341003 80.23876953 100.38095093 C77.52188164 99.91864297 76.63254298 99.18696144 75 97 C74.59004977 94.26699843 74.53410602 92.72743315 76.0402832 90.37573242 C79.04459569 88.26668784 82.18488667 88.51939252 85.73046875 88.48828125 C86.48088943 88.47033005 87.23131012 88.45237885 88.00447083 88.43388367 C90.3987569 88.37974813 92.79284331 88.34587584 95.1875 88.3125 C96.81187677 88.27932964 98.43622717 88.24484024 100.06054688 88.20898438 C104.04022056 88.1240203 108.0198347 88.05722535 112 88 C105.8159456 80.2532388 105.8159456 80.2532388 99.5625 72.5625 C98.81097656 71.64597656 98.05945312 70.72945312 97.28515625 69.78515625 C96.15400391 68.40650391 96.15400391 68.40650391 95 67 C92.75885417 64.26168491 90.51853931 61.52271719 88.28125 58.78125 C86.68602239 56.83638347 85.08102937 54.8995043 83.46875 52.96875 C82.6540625 51.9890625 81.839375 51.009375 81 50 C80.2575 49.113125 79.515 48.22625 78.75 47.3125 C77 45 77 45 76 42 C69.0542311 47.88592405 62.67185766 54.2427503 56.3125 60.75 C53.66346909 63.32743548 50.84356765 65.64044386 48 68 C47.319375 68.763125 46.63875 69.52625 45.9375 70.3125 C44 72 44 72 41.59326172 72.32275391 C38.31667709 71.91495454 37.61250946 71.06253429 35.5703125 68.5234375 C34.67554199 67.42273926 34.67554199 67.42273926 33.76269531 66.29980469 C31.06823032 62.78431158 28.43465683 59.23998579 25.875 55.625 C24.73575248 54.03249814 23.59642739 52.44005178 22.45703125 50.84765625 C21.88291504 50.04215332 21.30879883 49.23665039 20.71728516 48.40673828 C18.01229083 44.6157468 15.28862141 40.83831567 12.5625 37.0625 C12.0380127 36.33571045 11.51352539 35.6089209 10.97314453 34.86010742 C6.76043609 29.03169688 2.51289229 23.22928923 -1.75 17.4375 C-2.35900146 16.60935791 -2.96800293 15.78121582 -3.59545898 14.92797852 C-4.15692627 14.16670654 -4.71839355 13.40543457 -5.296875 12.62109375 C-5.79541992 11.9448999 -6.29396484 11.26870605 -6.80761719 10.57202148 C-7.909912 9.04473663 -7.909912 9.04473663 -9 8 C-9.29178308 5.22806071 -9.36366316 3.58590175 -7.875 1.1875 C-5.12608651 -0.55347855 -3.19866519 -0.34070995 0 0 Z " fill="#8FACCB" transform="translate(1139,595)"/>
<path d="M0 0 C3.3 0 6.6 0 10 0 C10 18.48 10 36.96 10 56 C29.47 56 48.94 56 69 56 C69 37.52 69 19.04 69 0 C71.97 0 74.94 0 78 0 C78 41.25 78 82.5 78 125 C74.7 125 71.4 125 68 125 C68 105.2 68 85.4 68 65 C48.86 65 29.72 65 10 65 C10 84.8 10 104.6 10 125 C6.7 125 3.4 125 0 125 C0 83.75 0 42.5 0 0 Z " fill="#FCFCFC" transform="translate(589,451)"/>
<path d="M0 0 C6.81574048 4.89636529 11.64401836 10.30615562 15 18 C15.433125 18.99 15.86625 19.98 16.3125 21 C17.24872909 25.08536329 17.12690828 28.81202675 17 33 C14.03 33 11.06 33 8 33 C7.84144531 32.2265625 7.68289063 31.453125 7.51953125 30.65625 C5.51996141 21.72999346 3.00985052 14.14918962 -5 9 C-12.12307376 4.75646669 -20.73295417 4.71758884 -28.6953125 6.65625 C-34.91397739 9.10155552 -38.66490118 13.24458334 -42.13671875 18.828125 C-44.252007 24.14984567 -43.78048595 30.9422734 -42.3828125 36.41796875 C-38.36401355 45.61141591 -28.78073135 49.48555795 -20 53 C-18.01268956 53.73685641 -16.02031774 54.45873305 -14.02709961 55.17944336 C-1.3114988 59.79235848 10.26629455 65.28152444 16.2734375 78.10546875 C19.55820053 86.67057664 19.2039397 97.01796643 15.9375 105.5 C11.33598684 115.04910113 4.88145387 119.47299139 -5 123 C-15.74561543 125.86915242 -29.21722627 125.3106486 -39 120 C-47.61431394 114.76503163 -53.11434468 108.37894132 -56.3203125 98.80078125 C-57.30785606 94.73142072 -57.27337711 91.16900088 -57 87 C-54.03 87 -51.06 87 -48 87 C-47.85304688 87.76183594 -47.70609375 88.52367187 -47.5546875 89.30859375 C-45.80678744 97.35496126 -43.63805946 104.47710238 -36.85546875 109.62890625 C-32.31800695 112.34210743 -28.32571426 113.72920097 -23 114 C-21.63875 114.0928125 -21.63875 114.0928125 -20.25 114.1875 C-12.3807421 114.5086942 -5.28614483 113.67256808 0.8828125 108.38671875 C6.52026411 102.24543692 7.47447351 96.14219523 7.3125 87.97265625 C6.68832866 82.03522638 4.41687906 78.41687906 0.25 74.25 C-6.43418869 69.62248475 -13.70375124 66.92810828 -21.3125 64.1875 C-33.5484828 59.63702456 -46.4561717 53.98206363 -52.4375 41.5625 C-55.63051772 32.40174611 -55.54968176 22.25606929 -51.5 13.4375 C-46.23921061 4.35740216 -39.04078528 -0.38981044 -29.20703125 -3.58203125 C-19.57175824 -5.40676437 -8.58646042 -4.92926432 0 0 Z " fill="#FBFBFC" transform="translate(1026,453)"/>
<path d="M0 0 C21.45 0 42.9 0 65 0 C65 2.97 65 5.94 65 9 C46.85 9 28.7 9 10 9 C10 24.51 10 40.02 10 56 C25.84 56 41.68 56 58 56 C58 58.97 58 61.94 58 65 C42.16 65 26.32 65 10 65 C10 81.5 10 98 10 115 C28.48 115 46.96 115 66 115 C66 118.3 66 121.6 66 125 C44.22 125 22.44 125 0 125 C0 83.75 0 42.5 0 0 Z " fill="#FBFAFB" transform="translate(402,451)"/>
<path d="M0 0 C7.40329245 6.2665105 11.52265187 15.23243266 13.03515625 24.72265625 C13.15472481 27.73100117 13.08012214 30.70994129 13.03515625 33.72265625 C9.73515625 33.72265625 6.43515625 33.72265625 3.03515625 33.72265625 C2.79732422 32.14677734 2.79732422 32.14677734 2.5546875 30.5390625 C0.37601407 16.98564094 0.37601407 16.98564094 -7.77734375 6.28515625 C-16.21210461 2.15046955 -25.63905008 1.23469351 -34.71484375 3.84765625 C-43.08415965 7.11482235 -46.76743011 12.43907601 -50.703125 20.33203125 C-53.57641543 28.05344331 -54.28014319 35.79705867 -54.30078125 43.98046875 C-54.30743805 44.92719452 -54.31409485 45.87392029 -54.32095337 46.84933472 C-54.33101127 48.84094319 -54.33577254 50.8325849 -54.33544922 52.82421875 C-54.33980297 55.81959751 -54.37614339 58.8134765 -54.4140625 61.80859375 C-54.50575557 77.36587762 -53.93911873 93.52111931 -42.421875 105.30078125 C-36.09473773 110.96104801 -29.91680387 111.17207023 -21.76953125 110.96484375 C-15.12166947 110.5416739 -9.36987498 109.66874315 -4.58984375 104.72265625 C0.66143127 97.67136912 2.47064972 89.33138086 3.03515625 80.72265625 C6.33515625 80.72265625 9.63515625 80.72265625 13.03515625 80.72265625 C13.89515494 91.6876396 10.06864191 102.33004292 3.03515625 110.72265625 C-2.38417849 116.7955791 -9.14964758 120.19366887 -17.2890625 120.93408203 C-19.91293991 121.07421637 -22.52487492 121.13754506 -25.15234375 121.16015625 C-25.99563232 121.17030762 -26.8389209 121.18045898 -27.70776367 121.19091797 C-37.63421907 121.05257695 -44.8077507 117.55793756 -51.96484375 110.72265625 C-64.73167749 95.97042908 -65.32896941 77.45960448 -65.28051758 58.8828125 C-65.27735624 56.35763343 -65.30092152 53.83362933 -65.32617188 51.30859375 C-65.39585485 33.3662669 -63.4835889 15.92910589 -50.83984375 2.16015625 C-37.32697877 -10.97411553 -14.82545286 -10.64190355 0 0 Z " fill="#FBFBFC" transform="translate(550.96484375,456.27734375)"/>
<path d="M0 0 C7.610625 -0.1546875 7.610625 -0.1546875 15.375 -0.3125 C16.95458496 -0.35802002 18.53416992 -0.40354004 20.16162109 -0.45043945 C28.34156171 -0.53059439 35.22493914 -0.1114883 42 5 C49.19055289 12.53760136 50.48573419 19.91871421 50.3046875 30.16796875 C49.69386252 37.8502675 47.81217888 43.76931736 42.0625 49.0625 C36.77037067 53.36564293 32.01298003 54.29540532 25.29296875 54.1953125 C24.3274408 54.19229126 24.3274408 54.19229126 23.34240723 54.18920898 C20.95736478 54.17881174 18.57242459 54.15088947 16.1875 54.125 C10.845625 54.08375 5.50375 54.0425 0 54 C0 36.18 0 18.36 0 0 Z " fill="#8084B8" transform="translate(805,460)"/>
<path d="M0 0 C7.610625 -0.1546875 7.610625 -0.1546875 15.375 -0.3125 C16.95458496 -0.35802002 18.53416992 -0.40354004 20.16162109 -0.45043945 C28.34904741 -0.53066774 35.21168556 -0.10018352 42 5 C48.30189535 11.46895473 50.06305335 17.80103043 50.375 26.75 C50.22945883 34.35856897 49.24113866 41.25137616 44.12890625 47.1640625 C38.23432624 52.57949895 33.29877753 54.31455694 25.29296875 54.1953125 C24.3274408 54.19229126 24.3274408 54.19229126 23.34240723 54.18920898 C20.95736478 54.17881174 18.57242459 54.15088947 16.1875 54.125 C10.845625 54.08375 5.50375 54.0425 0 54 C0 36.18 0 18.36 0 0 Z " fill="#B3A6BE" transform="translate(315,460)"/>
<path d="M0 0 C26.4 0 52.8 0 80 0 C80 2.97 80 5.94 80 9 C68.45 9 56.9 9 45 9 C45 47.28 45 85.56 45 125 C41.7 125 38.4 125 35 125 C35 86.72 35 48.44 35 9 C23.45 9 11.9 9 0 9 C0 6.03 0 3.06 0 0 Z " fill="#FAFBFC" transform="translate(876,451)"/>
<path d="M0 0 C5.12607258 -0.17881649 9.68779255 0.39307368 14.625 1.6875 C15.6600769 1.95216064 15.6600769 1.95216064 16.71606445 2.22216797 C23.34294374 3.97887375 29.6703045 6.37527436 36 9 C37.66603892 9.66823389 39.33249371 10.33543625 41 11 C41 11.66 41 12.32 41 13 C41.7321875 13.26039062 42.464375 13.52078125 43.21875 13.7890625 C46.06068812 15.0264232 48.09420236 16.43511388 50.5 18.375 C51.2321875 18.96023437 51.964375 19.54546875 52.71875 20.1484375 C53.4715625 20.75945312 54.224375 21.37046875 55 22 C55.82757812 22.63035156 56.65515625 23.26070312 57.5078125 23.91015625 C67.18180288 32.02235822 75.11648319 44.40164758 80 56 C79.59375 58.22265625 79.59375 58.22265625 79 60 C66.04373907 52.81634667 53.14349154 45.56703009 40.41503906 37.9855957 C31.93604658 32.94036518 23.38946012 28.01567052 14.82836914 23.11157227 C9.14489766 19.84799388 3.52995575 16.51785137 -2 13 C-1.67 12.34 -1.34 11.68 -1 11 C-0.7724985 9.12943209 -0.59037189 7.25314042 -0.4375 5.375 C-0.35371094 4.37210937 -0.26992187 3.36921875 -0.18359375 2.3359375 C-0.12300781 1.56507812 -0.06242187 0.79421875 0 0 Z " fill="#7A79E0" transform="translate(1172,105)"/>
<path d="M0 0 C3.63 0 7.26 0 11 0 C11.0233365 15.08390124 11.04108925 30.16780034 11.05181217 45.25171566 C11.0569275 52.25839294 11.06387709 59.26505866 11.07543945 66.27172852 C11.08662593 73.0539568 11.09231137 79.83617317 11.09487724 86.61841011 C11.09670199 89.18508656 11.10026387 91.75176248 11.10573006 94.31843376 C11.13959932 110.90613545 10.798523 127.43088829 10 144 C6.7 145.65 3.4 147.3 0 149 C0 99.83 0 50.66 0 0 Z " fill="#8DA4C8" transform="translate(1102,561)"/>
<path d="M0 0 C1.984375 1.6953125 1.984375 1.6953125 3.75 4.125 C4.43191406 5.04539062 5.11382813 5.96578125 5.81640625 6.9140625 C6.89728516 8.44160156 6.89728516 8.44160156 8 10 C8.75152344 11.03898438 9.50304688 12.07796875 10.27734375 13.1484375 C11.94175641 15.45645498 13.59204193 17.77388029 15.234375 20.09765625 C18.27504011 24.39717437 21.35352063 28.66898186 24.4375 32.9375 C24.98067871 33.68950684 25.52385742 34.44151367 26.08349609 35.21630859 C31.35356495 42.50356874 36.66926838 49.75704201 42 57 C46.45295031 53.38002071 50.52300534 49.51252043 54.50390625 45.3828125 C55.23883804 44.62541779 55.23883804 44.62541779 55.98861694 43.85272217 C58.03614567 41.74222886 60.08256075 39.63144641 62.10522461 37.49707031 C63.59937071 35.92418478 65.11197128 34.37118932 66.62890625 32.8203125 C67.51650635 31.89492676 68.40410645 30.96954102 69.31860352 30.01611328 C72 28 72 28 75.16015625 27.55712891 C79.26619344 28.19746173 80.72867 30.17489432 83.4375 33.25 C84.76587891 34.71179688 84.76587891 34.71179688 86.12109375 36.203125 C88 39 88 39 88.0390625 41.21875 C86.67795111 43.5520838 85.38979842 44.16008959 82.9375 45.25 C82.20402344 45.58515625 81.47054688 45.9203125 80.71484375 46.265625 C80.14894531 46.50796875 79.58304688 46.7503125 79 47 C77.5 45.625 77.5 45.625 76 44 C76 43.34 76 42.68 76 42 C69.0542311 47.88592405 62.67185766 54.2427503 56.3125 60.75 C53.66346909 63.32743548 50.84356765 65.64044386 48 68 C47.319375 68.763125 46.63875 69.52625 45.9375 70.3125 C44 72 44 72 41.59326172 72.32275391 C38.31667709 71.91495454 37.61250946 71.06253429 35.5703125 68.5234375 C34.67554199 67.42273926 34.67554199 67.42273926 33.76269531 66.29980469 C31.06823032 62.78431158 28.43465683 59.23998579 25.875 55.625 C24.73575248 54.03249814 23.59642739 52.44005178 22.45703125 50.84765625 C21.88291504 50.04215332 21.30879883 49.23665039 20.71728516 48.40673828 C18.01229083 44.6157468 15.28862141 40.83831567 12.5625 37.0625 C12.0380127 36.33571045 11.51352539 35.6089209 10.97314453 34.86010742 C6.76043609 29.03169688 2.51289229 23.22928923 -1.75 17.4375 C-2.35900146 16.60935791 -2.96800293 15.78121582 -3.59545898 14.92797852 C-4.15692627 14.16670654 -4.71839355 13.40543457 -5.296875 12.62109375 C-5.79541992 11.9448999 -6.29396484 11.26870605 -6.80761719 10.57202148 C-7.909912 9.04473663 -7.909912 9.04473663 -9 8 C-9.29178308 5.22806071 -9.36366316 3.58590175 -7.875 1.1875 C-5.12608651 -0.55347855 -3.19866519 -0.34070995 0 0 Z " fill="#87A2C7" transform="translate(1139,595)"/>
<path d="M0 0 C2.31 0 4.62 0 7 0 C7.15559041 9.52910225 7.30372085 19.05828556 7.4429636 28.58764076 C7.50787744 33.01503365 7.57512659 37.44236247 7.64819336 41.86962891 C8.26554923 79.46940324 8.26554923 79.46940324 7 98 C7.62083466 97.98525131 8.24166931 97.97050262 8.88131714 97.95530701 C41.29066881 97.19507673 73.59866234 96.81782163 106 98 C106 100.31 106 102.62 106 105 C71.02 105 36.04 105 0 105 C-1.15029204 63.5894867 -1.15029204 63.5894867 -0.87890625 50.390625 C-0.8543659 48.89509174 -0.83053855 47.39954665 -0.80735779 45.9039917 C-0.74687513 42.11661368 -0.67725081 38.32946866 -0.60510254 34.54229736 C-0.5321718 30.61814271 -0.46873873 26.69383285 -0.40429688 22.76953125 C-0.27836399 15.17951546 -0.14268848 7.58972137 0 0 Z " fill="#DED3D5" transform="translate(199,105)"/>
<path d="M0 0 C0.66 0 1.32 0 2 0 C4.48390409 8.01268198 6.96174658 16.02720234 9.43187714 24.04413986 C10.57905272 27.76668244 11.72830386 31.4885575 12.88232422 35.20898438 C13.99598099 38.7995546 15.10415152 42.39177584 16.20854187 45.9852066 C16.63080477 47.35572758 17.05503948 48.72564264 17.48127747 50.09493256 C18.07802461 52.0131697 18.66711214 53.93378461 19.25585938 55.85449219 C19.59339233 56.94703308 19.93092529 58.03957397 20.27868652 59.16522217 C21 62 21 62 21 66 C7.8 66 -5.4 66 -19 66 C-15.62827151 51.38917654 -15.62827151 51.38917654 -13.984375 46.23046875 C-13.62335693 45.08537842 -13.26233887 43.94028809 -12.89038086 42.76049805 C-12.51405518 41.58140869 -12.13772949 40.40231934 -11.75 39.1875 C-10.95273048 36.65676455 -10.15669582 34.12569159 -9.36328125 31.59375 C-9.06599876 30.64643257 -9.06599876 30.64643257 -8.76271057 29.67997742 C-5.68372857 19.83405915 -2.84327775 9.91605269 0 0 Z " fill="#8888B8" transform="translate(731,465)"/>
<path d="M0 0 C4.4044955 1.62655643 6.32509311 5.00344401 9.01171875 8.73046875 C9.5739917 9.48835693 10.13626465 10.24624512 10.71557617 11.02709961 C12.43477377 13.35430315 14.13239994 15.69580526 15.82421875 18.04296875 C16.3440332 18.7606543 16.86384766 19.47833984 17.39941406 20.21777344 C20.23590387 24.13994778 23.04298635 28.08143909 25.82421875 32.04296875 C28.8816939 30.69032811 30.84862789 29.20833424 33.1015625 26.75 C33.69775391 26.12029297 34.29394531 25.49058594 34.90820312 24.84179688 C36.14792951 23.51323868 37.37969175 22.1772057 38.60351562 20.83398438 C43.10361148 16.12029174 43.10361148 16.12029174 46.4453125 15.76171875 C49.68204292 17.50498243 51.70895855 19.89286061 53.94921875 22.73046875 C54.41497314 23.30047607 54.88072754 23.8704834 55.3605957 24.45776367 C56.86396711 26.30762208 58.34598433 28.17297609 59.82421875 30.04296875 C60.34516113 30.69813477 60.86610352 31.35330078 61.40283203 32.02832031 C64.56843695 36.01391366 67.70608204 40.0201502 70.82421875 44.04296875 C70.88480469 42.91117188 70.94539063 41.779375 71.0078125 40.61328125 C71.09221792 39.1314973 71.17686592 37.64972715 71.26171875 36.16796875 C71.30103516 35.42160156 71.34035156 34.67523438 71.38085938 33.90625 C71.7109375 28.26953125 71.7109375 28.26953125 72.82421875 26.04296875 C74.4903378 26.00024775 76.1580476 26.00233043 77.82421875 26.04296875 C80.25437912 28.47312912 78.9974443 34.30072006 79.00976562 37.69726562 C79.00968506 38.39972412 79.00960449 39.10218262 79.00952148 39.82592773 C79.01170618 41.96813875 79.02985387 44.10983346 79.04882812 46.25195312 C79.05176234 47.60807115 79.05374695 48.96419163 79.0546875 50.3203125 C79.05879639 51.56031006 79.06290527 52.80030762 79.06713867 54.07788086 C78.82421875 57.04296875 78.82421875 57.04296875 76.82421875 59.04296875 C73.85913086 59.28588867 73.85913086 59.28588867 70.1015625 59.2734375 C69.44088272 59.27297928 68.78020294 59.27252106 68.09950256 59.27204895 C66.70327966 59.26902796 65.30706008 59.26114617 63.91088867 59.2487793 C61.76664377 59.23051071 59.62283026 59.22826969 57.47851562 59.22851562 C46.97165087 59.19040087 46.97165087 59.19040087 45.82421875 58.04296875 C45.78358043 56.3767976 45.78149775 54.7090878 45.82421875 53.04296875 C48.11730838 51.89642393 49.62331531 51.84567758 52.17578125 51.7265625 C53.0265625 51.68466797 53.87734375 51.64277344 54.75390625 51.59960938 C55.64335937 51.56029297 56.5328125 51.52097656 57.44921875 51.48046875 C58.34640625 51.43728516 59.24359375 51.39410156 60.16796875 51.34960938 C62.38656158 51.24340014 64.60526755 51.14135681 66.82421875 51.04296875 C65.6640625 49.70105469 65.6640625 49.70105469 64.48046875 48.33203125 C63.42811258 47.11091216 62.37604941 45.88954052 61.32421875 44.66796875 C60.77902588 44.03616699 60.23383301 43.40436523 59.67211914 42.75341797 C55.76088619 38.19828713 52.04091093 33.54787742 48.4453125 28.73828125 C47.91035156 28.17882812 47.37539063 27.619375 46.82421875 27.04296875 C43.82316162 26.7190626 43.82316162 26.7190626 42.07836914 28.52758789 C41.13465454 29.54260376 41.13465454 29.54260376 40.171875 30.578125 C39.13063477 31.66770508 39.13063477 31.66770508 38.06835938 32.77929688 C36.61380628 34.33021248 35.1632764 35.88491114 33.71679688 37.44335938 C33.02134766 38.16845703 32.32589844 38.89355469 31.609375 39.640625 C30.979104 40.31617432 30.34883301 40.99172363 29.69946289 41.68774414 C27.82421875 43.04296875 27.82421875 43.04296875 25.72021484 42.89990234 C22.70111172 41.53535792 21.34185354 39.24638438 19.38671875 36.60546875 C18.96567871 36.04214844 18.54463867 35.47882813 18.11083984 34.8984375 C16.66759977 32.95675616 15.24405742 31.00182449 13.82421875 29.04296875 C13.2739502 28.28483887 12.72368164 27.52670898 12.15673828 26.74560547 C9.86080542 23.57730859 7.56745476 20.4073703 5.29125977 17.22485352 C3.08107342 14.13726849 0.88137362 11.11212142 -1.5390625 8.18359375 C-3.17578125 6.04296875 -3.17578125 6.04296875 -3.48828125 3.29296875 C-3.07735623 0.3343086 -3.00220042 0.05928942 0 0 Z " fill="#D9CFD4" transform="translate(219.17578125,124.95703125)"/>
<path d="M0 0 C1.88955149 1.21759869 3.747584 2.48621523 5.5625 3.8125 C6.68398437 4.48925781 6.68398437 4.48925781 7.828125 5.1796875 C10.59525942 6.90071013 12.3464476 8.38039519 13.8125 11.3125 C13.43558013 15.08169866 11.32731946 16.32354681 8.5625 18.8125 C6.65337351 20.06828614 4.69622566 21.25336724 2.703125 22.37109375 C1.58679688 23.00466797 0.47046875 23.63824219 -0.6796875 24.29101562 C-1.84866861 24.94452893 -3.01794114 25.59752123 -4.1875 26.25 C-11.14488035 30.16450802 -18.0427435 34.058002 -24.62939453 38.57666016 C-28.73202376 41.38080668 -31.20660855 42.87303565 -36.25 42.625 C-37.301875 42.356875 -38.35375 42.08875 -39.4375 41.8125 C-40.69588557 39.29572887 -40.64568973 37.39956712 -40.75390625 34.5859375 C-40.79580078 33.5546875 -40.83769531 32.5234375 -40.88085938 31.4609375 C-40.92017578 30.38070312 -40.95949219 29.30046875 -41 28.1875 C-41.04318359 27.09953125 -41.08636719 26.0115625 -41.13085938 24.890625 C-41.2371453 22.1980483 -41.33918057 19.50537747 -41.4375 16.8125 C-39.1275 16.1525 -36.8175 15.4925 -34.4375 14.8125 C-34.4375 14.1525 -34.4375 13.4925 -34.4375 12.8125 C-31.7975 11.8225 -29.1575 10.8325 -26.4375 9.8125 C-26.1075 13.1125 -25.7775 16.4125 -25.4375 19.8125 C-23.45251949 18.88737334 -21.47463982 17.94699763 -19.5 17 C-17.84677734 16.21689453 -17.84677734 16.21689453 -16.16015625 15.41796875 C-13.15009223 14.04455279 -13.15009223 14.04455279 -12.4375 10.8125 C-13.200625 10.544375 -13.96375 10.27625 -14.75 10 C-17.34979902 8.8512516 -18.53965992 7.8439124 -20.4375 5.8125 C-7.50172855 -3.7936498 -7.50172855 -3.7936498 0 0 Z " fill="#EBABAF" transform="translate(77.4375,690.1875)"/>
<path d="M0 0 C3.22742564 2.81365313 4.31338608 5.13249643 4.6875 9.3125 C4.48559203 15.04284042 1.00655321 18.24896676 -3 22 C0.06021459 27.53192638 3.4447843 32.77383293 7 38 C0.01040641 38.76833313 0.01040641 38.76833313 -2.58154297 36.79736328 C-3.99704127 35.1160437 -5.2286864 33.39782112 -6.4375 31.5625 C-6.86998047 30.95083984 -7.30246094 30.33917969 -7.74804688 29.70898438 C-8.84831867 28.15069647 -9.92597502 26.5764928 -11 25 C-11.33 24.67 -11.66 24.34 -12 24 C-13.65 24 -15.3 24 -17 24 C-17.33 28.62 -17.66 33.24 -18 38 C-20.31 38 -22.62 38 -25 38 C-25 24.8 -25 11.6 -25 -2 C-16.58646674 -3.68270665 -7.55028128 -4.65868419 0 0 Z " fill="#D2ACB4" transform="translate(266,682)"/>
<path d="M0 0 C1.98 0 3.96 0 6 0 C6 0.66 6 1.32 6 2 C6.639375 1.67 7.27875 1.34 7.9375 1 C12.03581133 -0.33822411 15.7281256 -0.63574174 20 0 C23.60359053 2.14681989 25.47452034 4.1367723 27 8 C27.77047626 14.08231737 28.53590522 20.99858285 24.75 26.1875 C20.49199113 30.26037805 14.62570709 31.04417598 9 32 C8.67 35.3 8.34 38.6 8 42 C5.36 42 2.72 42 0 42 C0 28.14 0 14.28 0 0 Z " fill="#E3ACB0" transform="translate(144,690)"/>
<path d="M0 0 C1.98 0 3.96 0 6 0 C6 0.66 6 1.32 6 2 C6.639375 1.67 7.27875 1.34 7.9375 1 C12.03933946 -0.33937615 15.72455283 -0.62851401 20 0 C23.02977081 1.74050664 24.4917035 3.17704377 26.3125 6.125 C28.00956061 13.22179891 27.67511801 19.66358964 24 26 C19.76650399 30.89497976 14.10438 31.18750809 8 32 C7.67 35.3 7.34 38.6 7 42 C4.69 42 2.38 42 0 42 C0 28.14 0 14.28 0 0 Z " fill="#C5A6B3" transform="translate(302,690)"/>
<path d="M0 0 C0.66 0 1.32 0 2 0 C3.60757412 4.14451997 5.21043498 8.29084771 6.8125 12.4375 C7.49022461 14.18450195 7.49022461 14.18450195 8.18164062 15.96679688 C15 33.63480839 15 33.63480839 15 38 C8.000632 39.93511939 0.96523652 41.45665746 -6.1875 42.6875 C-6.92274902 42.81874268 -7.65799805 42.94998535 -8.41552734 43.08520508 C-13.66711353 43.9581276 -18.67689372 44.11056897 -24 44 C-20.6399391 37.70725436 -17.14810497 31.5009385 -13.58789062 25.31982422 C-8.79379045 16.99501373 -4.10329093 8.6924979 0 0 Z " fill="#8B87C2" transform="translate(749,287)"/>
<path d="M0 0 C0.66 0 1.32 0 2 0 C2.30067383 0.56170898 2.60134766 1.12341797 2.91113281 1.70214844 C9.12228379 13.27470108 15.48993832 24.70718117 22.34082031 35.91503906 C22.82131836 36.70233398 23.30181641 37.48962891 23.796875 38.30078125 C24.22323242 38.99341064 24.64958984 39.68604004 25.08886719 40.3996582 C26 42 26 42 26 43 C18.89445797 43.22066901 12.35634046 42.40673048 5.375 41.125 C4.37726562 40.95097656 3.37953125 40.77695312 2.3515625 40.59765625 C-2.87175345 39.66492126 -7.93269368 38.57554902 -13 37 C-11.06936948 28.20324763 -8.25248475 20.06288755 -4.8125 11.75 C-4.34908203 10.61175781 -3.88566406 9.47351563 -3.40820312 8.30078125 C-2.27927616 5.53083675 -1.14315546 2.76409539 0 0 Z " fill="#9991C1" transform="translate(598,288)"/>
<path d="M0 0 C-2.57936225 5.49354557 -5.39380295 10.73566807 -8.625 15.875 C-14.14921379 24.69045994 -19.04631929 33.85569172 -24 43 C-24.66 43 -25.32 43 -26 43 C-39 10.25864277 -39 10.25864277 -39 6 C-11.16101695 -0.3720339 -11.16101695 -0.3720339 0 0 Z " fill="#9C94C6" transform="translate(624,215)"/>
<path d="M0 0 C3.71563534 1.23854511 4.59458591 2.69017178 7 5.75 C7.78632812 6.73613281 8.57265625 7.72226563 9.3828125 8.73828125 C9.80336914 9.26631348 10.22392578 9.7943457 10.65722656 10.33837891 C13.46311296 13.81053579 16.38118148 17.18952486 19.28125 20.58300781 C26 28.47557452 26 28.47557452 26 31 C1.25 30.505 1.25 30.505 -24 30 C-22.04939025 26.09878049 -19.74931137 22.89381793 -17.0625 19.5 C-16.58321045 18.89140137 -16.1039209 18.28280273 -15.61010742 17.65576172 C-10.70001707 11.49718085 -5.41292619 5.71655261 0 0 Z " fill="#958DCA" transform="translate(674,170)"/>
<path d="M0 0 C8.89442312 0.3082989 17.49331099 1.47069732 26.25 3 C27.27424072 3.17821289 28.29848145 3.35642578 29.35375977 3.54003906 C36.7253825 4.86269125 36.7253825 4.86269125 39 6 C37.56860738 12.12947831 35.72147071 18.00503007 33.625 23.9375 C33.18800781 25.20110352 33.18800781 25.20110352 32.7421875 26.49023438 C30.76356307 32.12671055 28.50914268 37.57936681 26 43 C25.34 43 24.68 43 24 43 C23.49569458 42.05084717 23.49569458 42.05084717 22.98120117 41.08251953 C16.30958878 28.5592315 9.48364796 16.21770438 1.94921875 4.19140625 C0 1 0 1 0 0 Z " fill="#8B86C8" transform="translate(725,215)"/>
<path d="M0 0 C16.17 0 32.34 0 49 0 C46.75004954 5.62487615 46.75004954 5.62487615 44.42578125 8.26953125 C43.9261084 8.84469482 43.42643555 9.4198584 42.91162109 10.01245117 C42.38391113 10.60646729 41.85620117 11.2004834 41.3125 11.8125 C40.77447754 12.42907471 40.23645508 13.04564941 39.68212891 13.6809082 C38.1278862 15.45975651 36.5654402 17.23100572 35 19 C33.62441501 20.56198501 32.24927939 22.12436615 30.875 23.6875 C30.35679687 24.26886719 29.83859375 24.85023438 29.3046875 25.44921875 C27.80049643 27.1787949 27.80049643 27.1787949 26 30 C17.35736051 26.55096522 10.49433129 15.53576622 4.8125 8.375 C4.33095459 7.77139648 3.84940918 7.16779297 3.35327148 6.54589844 C0 2.246738 0 2.246738 0 0 Z " fill="#8E8ABE" transform="translate(650,346)"/>
<path d="M0 0 C0.66902344 -0.02900391 1.33804687 -0.05800781 2.02734375 -0.08789062 C5.66517381 -0.13434622 7.59355234 0.21106001 10.671875 2.20703125 C13.88331755 5.46072963 13.87115363 7.29330944 13.84765625 11.7578125 C13.84443359 12.83417969 13.84121094 13.91054688 13.83789062 15.01953125 C13.82951172 16.14746094 13.82113281 17.27539062 13.8125 18.4375 C13.80798828 19.57316406 13.80347656 20.70882812 13.79882812 21.87890625 C13.78701615 24.69015638 13.77054507 27.5013023 13.75 30.3125 C11.77 30.3125 9.79 30.3125 7.75 30.3125 C7.75 29.6525 7.75 28.9925 7.75 28.3125 C6.925 28.828125 6.1 29.34375 5.25 29.875 C0.1145965 31.98418358 -3.5465892 31.39386432 -8.75 29.3125 C-10.88320049 26.46823269 -10.73414307 24.04643068 -10.78125 20.56640625 C-10.03249428 17.38969998 -8.85104361 16.2632827 -6.25 14.3125 C-3.015625 13.484375 -3.015625 13.484375 0.5 13.0625 C1.67046875 12.91296875 2.8409375 12.7634375 4.046875 12.609375 C5.38492187 12.46242188 5.38492187 12.46242188 6.75 12.3125 C5.94704936 9.81253012 5.94704936 9.81253012 4.75 7.3125 C0.48433895 6.02288154 -3.81858993 6.2238718 -8.25 6.3125 C-8.292721 4.64638095 -8.29063832 2.97867115 -8.25 1.3125 C-6.28039628 -0.65710372 -2.67904385 0.0378396 0 0 Z " fill="#BFA8B7" transform="translate(354.25,689.6875)"/>
<path d="M0 0 C3.58213023 1.53023039 6.82326041 3.40599875 10.09375 5.5 C10.68671875 5.87253906 11.2796875 6.24507812 11.890625 6.62890625 C13.3368843 7.53865 14.77833046 8.45603798 16.21875 9.375 C13.5483417 12.43437201 10.23476447 14.28121746 6.7578125 16.28125 C6.13023041 16.6472229 5.50264832 17.0131958 4.85604858 17.39025879 C2.85446079 18.5562226 0.84922403 19.71573583 -1.15625 20.875 C-2.49764827 21.65451368 -3.83879686 22.43445718 -5.1796875 23.21484375 C-7.07564643 24.31814604 -8.97193474 25.42082682 -10.87020874 26.5201416 C-13.46161829 28.02102117 -16.03571125 29.53376604 -18.57666016 31.11914062 C-20.78125 32.375 -20.78125 32.375 -22.78125 32.375 C-22.97116128 29.3303906 -23.10926567 26.29768634 -23.21875 23.25 C-23.27740234 22.3940625 -23.33605469 21.538125 -23.39648438 20.65625 C-23.56592968 14.36256732 -23.56592968 14.36256732 -21.22705078 11.41894531 C-16.57568158 7.375 -16.57568158 7.375 -14.78125 7.375 C-14.45125 10.675 -14.12125 13.975 -13.78125 17.375 C-11.79626949 16.44987334 -9.81838982 15.50949763 -7.84375 14.5625 C-6.74160156 14.04042969 -5.63945313 13.51835938 -4.50390625 12.98046875 C-1.49384223 11.60705279 -1.49384223 11.60705279 -0.78125 8.375 C-1.544375 8.106875 -2.3075 7.83875 -3.09375 7.5625 C-5.65505884 6.43075888 -6.97817938 5.46276599 -8.78125 3.375 C-3.61001358 -0.81123901 -3.61001358 -0.81123901 0 0 Z " fill="#E8A1A5" transform="translate(65.78125,692.625)"/>
<path d="M0 0 C2.64 0 5.28 0 8 0 C10.31 7.26 12.62 14.52 15 22 C17.64 14.74 20.28 7.48 23 0 C25.31 0 27.62 0 30 0 C28.37217405 9.05606968 25.06289643 17.46620407 21.875 26.0625 C21.30546523 27.61113539 20.7364503 29.15996206 20.16796875 30.70898438 C18.78463367 34.47488994 17.39427449 38.23813161 16 42 C13.36 42.33 10.72 42.66 8 43 C8.47859241 41.39566191 8.95789558 39.79153584 9.4375 38.1875 C9.70433594 37.29417969 9.97117187 36.40085937 10.24609375 35.48046875 C10.80387873 33.64526945 11.39344575 31.81966274 12 30 C11.34 30 10.68 30 10 30 C8.7015183 26.50249127 7.41247442 23.00157404 6.125 19.5 C5.76019531 18.51773438 5.39539063 17.53546875 5.01953125 16.5234375 C3.01530089 11.0573547 1.28465924 5.67954611 0 0 Z " fill="#BDA6B6" transform="translate(370,690)"/>
<path d="M0 0 C1.2065625 0.0309375 1.2065625 0.0309375 2.4375 0.0625 C2.4375 0.7225 2.4375 1.3825 2.4375 2.0625 C3.241875 1.7325 4.04625 1.4025 4.875 1.0625 C9.15717183 -0.13951315 13.02225735 -0.64259578 17.4375 0.0625 C19.93910818 1.93870613 21.05695652 3.30141303 22.4375 6.0625 C22.52221364 7.87591842 22.54471083 9.69244161 22.53515625 11.5078125 C22.53193359 12.58417969 22.52871094 13.66054688 22.52539062 14.76953125 C22.51701172 15.89746094 22.50863281 17.02539062 22.5 18.1875 C22.49548828 19.32316406 22.49097656 20.45882812 22.48632812 21.62890625 C22.47451615 24.44015638 22.45804507 27.2513023 22.4375 30.0625 C20.1275 30.0625 17.8175 30.0625 15.4375 30.0625 C15.41244385 29.4012915 15.3873877 28.74008301 15.36157227 28.05883789 C15.24596898 25.08067695 15.12308246 22.1028608 15 19.125 C14.96068359 18.08408203 14.92136719 17.04316406 14.88085938 15.97070312 C14.83896484 14.98134766 14.79707031 13.99199219 14.75390625 12.97265625 C14.71724854 12.05621338 14.68059082 11.13977051 14.64282227 10.19555664 C14.66746136 8.0804272 14.66746136 8.0804272 13.4375 7.0625 C10.47932893 6.81244614 10.47932893 6.81244614 7.4375 7.0625 C4.95692372 9.54307628 5.14730995 10.42442464 5.0234375 13.8515625 C4.96542969 15.26308594 4.96542969 15.26308594 4.90625 16.703125 C4.85984375 18.18039062 4.85984375 18.18039062 4.8125 19.6875 C4.75449219 21.17636719 4.75449219 21.17636719 4.6953125 22.6953125 C4.6008686 25.15085385 4.51530125 27.6063841 4.4375 30.0625 C1.7975 30.0625 -0.8425 30.0625 -3.5625 30.0625 C-3.58715746 25.9507744 -3.60533959 21.83907722 -3.61743164 17.72729492 C-3.6224708 16.32754772 -3.62930216 14.9278058 -3.63793945 13.52807617 C-3.6500232 11.52004223 -3.65519807 9.51197043 -3.66015625 7.50390625 C-3.66539307 6.29420166 -3.67062988 5.08449707 -3.67602539 3.83813477 C-3.52255704 0.08591603 -3.52255704 0.08591603 0 0 Z " fill="#DAACB2" transform="translate(206.5625,689.9375)"/>
<path d="M0 0 C2.55333137 1.4362489 4.03988674 2.60487967 6 4.6875 C-0.72423304 8.45773471 -7.38086072 11.35232638 -14.75 13.5625 C-15.44601318 13.77737061 -16.14202637 13.99224121 -16.85913086 14.21362305 C-21.7052892 15.60225476 -25.96228745 15.87952043 -31 15.6875 C-29.03792484 8.69760723 -26.03332549 4.77601727 -20 0.6875 C-13.82679575 -2.3094911 -6.40415497 -2.58891371 0 0 Z " fill="#7E86D5" transform="translate(1205,274.3125)"/>
<path d="M0 0 C2.31 0 4.62 0 7 0 C7 14.52 7 29.04 7 44 C4.69 44 2.38 44 0 44 C0 29.48 0 14.96 0 0 Z " fill="#C1A8B7" transform="translate(333,676)"/>
<path d="M0 0 C0.33 0 0.66 0 1 0 C1.02333012 14.45532811 1.04091332 28.91065331 1.05181217 43.36599636 C1.05697489 50.07741868 1.06401713 56.78882932 1.07543945 63.50024414 C1.08626565 69.97113736 1.09227626 76.44201842 1.09487724 82.91292 C1.09673198 85.38778945 1.1003535 87.8626582 1.10573006 90.33752251 C1.11293693 93.79070373 1.11399109 97.24383401 1.11352539 100.69702148 C1.11712067 101.73135818 1.12071594 102.76569489 1.12442017 103.83137512 C1.1230455 104.76672089 1.12167084 105.70206665 1.12025452 106.66575623 C1.12117631 107.4833866 1.1220981 108.30101698 1.12304783 109.14342403 C1 111 1 111 0 112 C-2.97 112 -5.94 112 -9 112 C-9 90.22 -9 68.44 -9 46 C-8.67 46 -8.34 46 -8 46 C-7.38748927 57.97002346 -6.92386787 69.89814447 -7.01953125 81.88476562 C-7.05718118 89.62182531 -6.60320807 97.2875539 -6 105 C-3.35985015 104.1968573 -3.35985015 104.1968573 -1 102 C-0.19665612 98.79076353 -0.31044886 95.58978026 -0.34057617 92.29614258 C-0.33009247 91.3008403 -0.31960876 90.30553802 -0.30880737 89.28007507 C-0.27996628 85.9845802 -0.28635974 82.69013018 -0.29296875 79.39453125 C-0.27985926 77.11194028 -0.26455736 74.82936092 -0.24714661 72.54679871 C-0.2071965 66.53469763 -0.19709967 60.52289932 -0.19311523 54.51068115 C-0.1838027 48.37746945 -0.14640097 42.24443705 -0.11132812 36.11132812 C-0.04665022 24.0742272 -0.01349378 12.03725947 0 0 Z " fill="#D8C0C8" transform="translate(165,531)"/>
<path d="M0 0 C45.87 0 91.74 0 139 0 C139 0.33 139 0.66 139 1 C123.88780974 1.96666932 108.81594796 2.1559432 93.67529297 2.13037109 C89.81864653 2.12492035 85.96211207 2.13039718 82.10546875 2.13671875 C79.65104141 2.13605942 77.19661414 2.1347813 74.7421875 2.1328125 C73.59031952 2.13483673 72.43845154 2.13686096 71.25167847 2.13894653 C70.19522125 2.13579437 69.13876404 2.13264221 68.05029297 2.12939453 C67.1202243 2.12859894 66.19015564 2.12780334 65.23190308 2.12698364 C63 2 63 2 61 1 C60.67 1.99 60.34 2.98 60 4 C59.505 3.01 59.505 3.01 59 2 C39.53 2 20.06 2 0 2 C0 1.34 0 0.68 0 0 Z " fill="#DAADB0" transform="translate(69,651)"/>
<path d="M0 0 C0 3.63 0 7.26 0 11 C-9.9 11 -19.8 11 -30 11 C-21.39565321 2.39565321 -12.16965181 -1.45550653 0 0 Z " fill="#82A9C2" transform="translate(1281,729)"/>
<path d="M0 0 C2.78896278 2.82116789 3.45170918 5.0199071 3.5 8.9375 C3.37228261 12.69683366 3.08239008 13.87516655 0.9375 17.125 C-2 19 -2 19 -9 19 C-9 13.06 -9 7.12 -9 1 C-5.9167365 -0.54163175 -3.39121901 -0.29747535 0 0 Z " fill="#DEA2A7" transform="translate(161,696)"/>
<path d="M0 0 C2.62581536 2.28700048 2.95141434 3.60321707 3.375 7.0625 C3 10 3 10 1.6875 11.8125 C-1.3799926 13.97110591 -4.06385426 14.1150166 -7.6875 14.0625 C-9.110625 14.041875 -10.53375 14.02125 -12 14 C-12 9.38 -12 4.76 -12 0 C-7.27035679 -0.94592864 -4.61131636 -1.11013172 0 0 Z " fill="#CBA1AB" transform="translate(260,685)"/>
<path d="M0 0 C21.12 0 42.24 0 64 0 C63.01 0.33 62.02 0.66 61 1 C60.67 1.99 60.34 2.98 60 4 C59.505 3.01 59.505 3.01 59 2 C39.53 2 20.06 2 0 2 C0 1.34 0 0.68 0 0 Z " fill="#E8B6B7" transform="translate(69,651)"/>
<path d="M0 0 C0.66 0.33 1.32 0.66 2 1 C-1.465 3.97 -1.465 3.97 -5 7 C-4.25556641 8.57974609 -4.25556641 8.57974609 -3.49609375 10.19140625 C-2.80988388 11.64843187 -2.12368697 13.10546359 -1.4375 14.5625 C-1.07325928 15.33537354 -0.70901855 16.10824707 -0.33374023 16.90454102 C1.37966095 20.54332974 3.08907961 24.18360132 4.7734375 27.8359375 C5.59714844 29.61871094 5.59714844 29.61871094 6.4375 31.4375 C6.71086182 32.03087158 6.98422363 32.62424316 7.26586914 33.2355957 C8.92762445 36.80815615 10.66784118 40.32937867 12.47265625 43.83203125 C12.89168213 44.64937744 13.31070801 45.46672363 13.74243164 46.30883789 C14.56741019 47.91026684 15.40096685 49.50731187 16.24389648 51.09936523 C16.61716064 51.82454346 16.9904248 52.54972168 17.375 53.296875 C17.71273437 53.93979492 18.05046875 54.58271484 18.3984375 55.24511719 C19 57 19 57 18 60 C2.37157281 28.93245755 2.37157281 28.93245755 -4 15.625 C-4.41427246 14.76559814 -4.82854492 13.90619629 -5.25537109 13.02075195 C-5.62484863 12.24304443 -5.99432617 11.46533691 -6.375 10.6640625 C-6.69210937 9.99842285 -7.00921875 9.3327832 -7.3359375 8.64697266 C-8 7 -8 7 -8 5 C-6.3203125 3.67578125 -6.3203125 3.67578125 -4.125 2.3125 C-3.40570312 1.85488281 -2.68640625 1.39726563 -1.9453125 0.92578125 C-1.30335938 0.62027344 -0.66140625 0.31476562 0 0 Z " fill="#7880B4" transform="translate(852,516)"/>
<path d="M0 0 C-8.14600853 4.05637976 -16.20942083 6.70289975 -25 9 C-26.29625529 12.63815652 -25.66851395 15.02562765 -24.625 18.6875 C-22.62646242 26.18886023 -21.83523893 33.2562295 -22 41 C-22.33 41 -22.66 41 -23 41 C-23.81339123 36.62516521 -24.62555593 32.25010359 -25.4375 27.875 C-25.66759766 26.6375 -25.89769531 25.4 -26.13476562 24.125 C-26.35712891 22.92617188 -26.57949219 21.72734375 -26.80859375 20.4921875 C-27.01282959 19.39245605 -27.21706543 18.29272461 -27.42749023 17.15966797 C-27.97995256 14.11064134 -28.49842898 11.05777032 -29 8 C-24.73432123 6.46442688 -20.46173014 4.94909058 -16.1875 3.4375 C-14.97255859 2.99986328 -13.75761719 2.56222656 -12.50585938 2.11132812 C-11.34248047 1.70205078 -10.17910156 1.29277344 -8.98046875 0.87109375 C-7.90692139 0.48880615 -6.83337402 0.10651855 -5.72729492 -0.28735352 C-3 -1 -3 -1 0 0 Z " fill="#8381BF" transform="translate(808,325)"/>
<path d="M0 0 C3 3.46153846 3 3.46153846 3 6 C2.29875 6.37511719 1.5975 6.75023437 0.875 7.13671875 C-4.37993019 9.97123952 -9.50162924 12.85661697 -14.44140625 16.21484375 C-14.95574219 16.47394531 -15.47007813 16.73304688 -16 17 C-16.66 16.67 -17.32 16.34 -18 16 C-15.38308836 13.32529045 -12.75518292 10.66165519 -10.125 8 C-9.00544922 6.8553125 -9.00544922 6.8553125 -7.86328125 5.6875 C-7.14785156 4.965625 -6.43242188 4.24375 -5.6953125 3.5 C-5.03547363 2.8296875 -4.37563477 2.159375 -3.69580078 1.46875 C-2 0 -2 0 0 0 Z " fill="#4F78AF" transform="translate(1215,637)"/>
<path d="M0 0 C2.9375 0.9375 2.9375 0.9375 4.3125 3.3125 C4.9375 5.9375 4.9375 5.9375 4.9375 8.9375 C0.9775 8.9375 -2.9825 8.9375 -7.0625 8.9375 C-6.75 5.5625 -6.75 5.5625 -6.0625 1.9375 C-3.0625 -0.0625 -3.0625 -0.0625 0 0 Z " fill="#C5A0AB" transform="translate(287.0625,694.0625)"/>
<path d="M0 0 C3.1875 0.875 3.1875 0.875 6 2 C6.33 4.31 6.66 6.62 7 9 C3.04 9 -0.92 9 -5 9 C-3.375 2.25 -3.375 2.25 0 0 Z " fill="#DAA3A8" transform="translate(186,694)"/>
<path d="M0 0 C0 2.31 0 4.62 0 7 C-2.98212913 8.49106457 -5.71609658 8.11941467 -9 8 C-10 7 -10 7 -10.25 4.5625 C-10.1675 3.716875 -10.085 2.87125 -10 2 C-6.3558226 -0.4294516 -4.28758728 -0.16179575 0 0 Z " fill="#B79CAD" transform="translate(361,707)"/>
<path d="M0 0 C0.33 0 0.66 0 1 0 C1.33 5.28 1.66 10.56 2 16 C3.98 15.01 5.96 14.02 8 13 C8 15.97 8 18.94 8 22 C5.36 22 2.72 22 0 22 C0 14.74 0 7.48 0 0 Z " fill="#D7A8AC" transform="translate(157,620)"/>
<path d="M0 0 C0.66 0.33 1.32 0.66 2 1 C0.4375 3.4375 0.4375 3.4375 -2 6 C-5.75 6.8125 -5.75 6.8125 -9 7 C-9.33 6.34 -9.66 5.68 -10 5 C-8.38007835 4.13624104 -6.75388139 3.28424146 -5.125 2.4375 C-4.22007813 1.96183594 -3.31515625 1.48617187 -2.3828125 0.99609375 C-1.20332031 0.50302734 -1.20332031 0.50302734 0 0 Z " fill="#92ADCC" transform="translate(1187,660)"/>
<path d="M0 0 C0 1.98 0 3.96 0 6 C-3.37503669 4.8141763 -5.64722731 3.72426311 -8 1 C-5.29120665 -0.35439668 -2.99066732 -0.06501451 0 0 Z " fill="#817DE0" transform="translate(1160,105)"/>
<path d="M0 0 C0.66 0.33 1.32 0.66 2 1 C-0.97 3.97 -3.94 6.94 -7 10 C-7.33 9.34 -7.66 8.68 -8 8 C-7.04578192 6.85073734 -6.08647955 5.70569459 -5.125 4.5625 C-4.59132813 3.92441406 -4.05765625 3.28632813 -3.5078125 2.62890625 C-2 1 -2 1 0 0 Z " fill="#9C92B7" transform="translate(511,462)"/>
<path d="M0 0 C0.99 0.66 1.98 1.32 3 2 C1.68 4.97 0.36 7.94 -1 11 C-1.33 11 -1.66 11 -2 11 C-1.125 3.375 -1.125 3.375 0 0 Z " fill="#8E8DB8" transform="translate(708,541)"/>
<path d="M0 0 C0.66 0.33 1.32 0.66 2 1 C-0.64 2.98 -3.28 4.96 -6 7 C-6.33 6.01 -6.66 5.02 -7 4 C-1.7265625 0.77734375 -1.7265625 0.77734375 0 0 Z " fill="#A597B2" transform="translate(361,517)"/>
<path d="M0 0 C0.66 0 1.32 0 2 0 C2.33 1.98 2.66 3.96 3 6 C1.68 6.33 0.36 6.66 -1 7 C-0.67 4.69 -0.34 2.38 0 0 Z " fill="#9290BD" transform="translate(731,465)"/>
<path d="M0 0 C2.97 0 5.94 0 9 0 C8.34 1.65 7.68 3.3 7 5 C6.67 4.01 6.34 3.02 6 2 C3.03 1.505 3.03 1.505 0 1 C0 0.67 0 0.34 0 0 Z " fill="#A29ACB" transform="translate(615,215)"/>
</svg>
